<svg width="711" height="62" viewBox="0 0 711 62" fill="none" xmlns="http://www.w3.org/2000/svg">
<path d="M24.5856 52.648C19.6896 52.648 15.3936 51.592 11.6976 49.48C8.04959 47.368 5.24159 44.344 3.27359 40.408C1.30559 36.472 0.321594 31.864 0.321594 26.584C0.321594 21.304 1.30559 16.72 3.27359 12.832C5.24159 8.896 8.04959 5.872 11.6976 3.76C15.3936 1.648 19.6896 0.591997 24.5856 0.591997C27.7536 0.591997 30.7296 1.072 33.5136 2.032C36.2976 2.944 38.7696 4.288 40.9296 6.064C41.5536 6.544 41.9856 7.048 42.2256 7.576C42.4656 8.104 42.5856 8.752 42.5856 9.52C42.5856 10.576 42.2976 11.464 41.7216 12.184C41.1456 12.904 40.4496 13.264 39.6336 13.264C38.6736 13.264 37.6896 12.928 36.6816 12.256C34.6176 10.72 32.6976 9.664 30.9216 9.088C29.1456 8.464 27.1776 8.152 25.0176 8.152C20.0256 8.152 16.2336 9.712 13.6416 12.832C11.0976 15.952 9.82559 20.536 9.82559 26.584C9.82559 32.68 11.0976 37.288 13.6416 40.408C16.2336 43.528 20.0256 45.088 25.0176 45.088C27.0816 45.088 28.9776 44.776 30.7056 44.152C32.4816 43.528 34.4736 42.472 36.6816 40.984C37.1616 40.696 37.6416 40.456 38.1216 40.264C38.6016 40.072 39.1056 39.976 39.6336 39.976C40.4496 39.976 41.1456 40.336 41.7216 41.056C42.2976 41.776 42.5856 42.664 42.5856 43.72C42.5856 44.44 42.4656 45.088 42.2256 45.664C41.9856 46.192 41.5536 46.696 40.9296 47.176C38.7696 48.952 36.2976 50.32 33.5136 51.28C30.7296 52.192 27.7536 52.648 24.5856 52.648ZM65.2633 52.576C61.6633 52.576 58.4953 51.832 55.7593 50.344C53.0713 48.856 50.9833 46.72 49.4953 43.936C48.0073 41.152 47.2633 37.912 47.2633 34.216C47.2633 30.52 48.0073 27.304 49.4953 24.568C50.9833 21.784 53.0713 19.648 55.7593 18.16C58.4953 16.672 61.6633 15.928 65.2633 15.928C68.8633 15.928 72.0073 16.672 74.6953 18.16C77.4313 19.648 79.5193 21.784 80.9593 24.568C82.4473 27.304 83.1913 30.52 83.1913 34.216C83.1913 37.912 82.4473 41.152 80.9593 43.936C79.5193 46.72 77.4313 48.856 74.6953 50.344C72.0073 51.832 68.8633 52.576 65.2633 52.576ZM65.1913 45.592C68.1193 45.592 70.3513 44.632 71.8873 42.712C73.4233 40.792 74.1913 37.96 74.1913 34.216C74.1913 30.52 73.4233 27.712 71.8873 25.792C70.3513 23.824 68.1433 22.84 65.2633 22.84C62.3833 22.84 60.1513 23.824 58.5673 25.792C57.0313 27.712 56.2633 30.52 56.2633 34.216C56.2633 37.96 57.0313 40.792 58.5673 42.712C60.1033 44.632 62.3113 45.592 65.1913 45.592ZM118.413 16.072C119.805 16.072 120.909 16.456 121.725 17.224C122.541 17.992 122.949 19.024 122.949 20.32V48.256C122.949 49.504 122.517 50.512 121.653 51.28C120.837 52.048 119.757 52.432 118.413 52.432C117.117 52.432 116.085 52.072 115.317 51.352C114.549 50.632 114.165 49.648 114.165 48.4V46.6C113.061 48.52 111.573 50.008 109.701 51.064C107.829 52.072 105.717 52.576 103.365 52.576C94.7254 52.576 90.4054 47.728 90.4054 38.032V20.32C90.4054 19.024 90.8134 17.992 91.6294 17.224C92.4454 16.456 93.5254 16.072 94.8694 16.072C96.2614 16.072 97.3654 16.456 98.1814 17.224C98.9974 17.992 99.4054 19.024 99.4054 20.32V38.104C99.4054 40.6 99.9094 42.448 100.917 43.648C101.925 44.848 103.509 45.448 105.669 45.448C108.165 45.448 110.157 44.632 111.645 43C113.181 41.32 113.949 39.112 113.949 36.376V20.32C113.949 19.024 114.357 17.992 115.173 17.224C115.989 16.456 117.069 16.072 118.413 16.072ZM152.765 15.928C156.989 15.928 160.133 17.128 162.197 19.528C164.261 21.928 165.293 25.552 165.293 30.4V48.112C165.293 49.456 164.885 50.512 164.069 51.28C163.301 52.048 162.221 52.432 160.829 52.432C159.437 52.432 158.333 52.048 157.517 51.28C156.701 50.512 156.293 49.456 156.293 48.112V30.904C156.293 28.168 155.765 26.176 154.709 24.928C153.701 23.68 152.093 23.056 149.885 23.056C147.293 23.056 145.205 23.872 143.621 25.504C142.085 27.136 141.317 29.32 141.317 32.056V48.112C141.317 49.456 140.909 50.512 140.093 51.28C139.277 52.048 138.173 52.432 136.781 52.432C135.389 52.432 134.285 52.048 133.469 51.28C132.701 50.512 132.317 49.456 132.317 48.112V20.248C132.317 19 132.725 17.992 133.541 17.224C134.357 16.456 135.461 16.072 136.853 16.072C138.101 16.072 139.109 16.456 139.877 17.224C140.693 17.944 141.101 18.904 141.101 20.104V22.048C142.301 20.08 143.909 18.568 145.925 17.512C147.941 16.456 150.221 15.928 152.765 15.928ZM192.722 45.736C195.122 45.88 196.322 46.96 196.322 48.976C196.322 50.128 195.842 51.016 194.882 51.64C193.97 52.216 192.65 52.456 190.922 52.36L188.978 52.216C180.914 51.64 176.882 47.32 176.882 39.256V23.56H173.282C171.986 23.56 170.978 23.272 170.258 22.696C169.586 22.12 169.25 21.28 169.25 20.176C169.25 19.072 169.586 18.232 170.258 17.656C170.978 17.08 171.986 16.792 173.282 16.792H176.882V10.168C176.882 8.872 177.29 7.84 178.106 7.072C178.922 6.304 180.026 5.92 181.418 5.92C182.762 5.92 183.842 6.304 184.658 7.072C185.474 7.84 185.882 8.872 185.882 10.168V16.792H192.002C193.298 16.792 194.282 17.08 194.954 17.656C195.674 18.232 196.034 19.072 196.034 20.176C196.034 21.28 195.674 22.12 194.954 22.696C194.282 23.272 193.298 23.56 192.002 23.56H185.882V39.904C185.882 43.456 187.514 45.352 190.778 45.592L192.722 45.736ZM236.183 52.576C232.679 52.576 229.583 51.832 226.895 50.344C224.255 48.856 222.215 46.744 220.775 44.008C219.335 41.272 218.615 38.08 218.615 34.432C218.615 30.784 219.359 27.568 220.847 24.784C222.383 21.952 224.519 19.768 227.255 18.232C229.991 16.696 233.135 15.928 236.687 15.928C238.559 15.928 240.431 16.192 242.303 16.72C244.223 17.248 245.903 17.968 247.343 18.88C248.879 19.888 249.647 21.16 249.647 22.696C249.647 23.752 249.383 24.616 248.855 25.288C248.375 25.912 247.727 26.224 246.911 26.224C246.383 26.224 245.831 26.104 245.255 25.864C244.679 25.624 244.103 25.336 243.527 25C242.471 24.376 241.463 23.896 240.503 23.56C239.543 23.176 238.439 22.984 237.191 22.984C234.215 22.984 231.911 23.968 230.279 25.936C228.695 27.856 227.903 30.64 227.903 34.288C227.903 37.888 228.695 40.672 230.279 42.64C231.911 44.56 234.215 45.52 237.191 45.52C238.391 45.52 239.447 45.352 240.359 45.016C241.319 44.632 242.375 44.128 243.527 43.504C244.247 43.072 244.871 42.76 245.399 42.568C245.927 42.328 246.455 42.208 246.983 42.208C247.751 42.208 248.399 42.544 248.927 43.216C249.455 43.888 249.719 44.728 249.719 45.736C249.719 46.552 249.527 47.272 249.143 47.896C248.807 48.472 248.231 49 247.415 49.48C245.927 50.44 244.199 51.208 242.231 51.784C240.263 52.312 238.247 52.576 236.183 52.576ZM270.979 15.928C275.875 15.928 279.499 17.152 281.851 19.6C284.251 22 285.451 25.672 285.451 30.616V48.184C285.451 49.48 285.067 50.512 284.299 51.28C283.531 52 282.475 52.36 281.131 52.36C279.883 52.36 278.851 51.976 278.035 51.208C277.267 50.44 276.883 49.432 276.883 48.184V46.6C276.067 48.472 274.771 49.936 272.995 50.992C271.267 52.048 269.251 52.576 266.947 52.576C264.595 52.576 262.459 52.096 260.539 51.136C258.619 50.176 257.107 48.856 256.003 47.176C254.899 45.496 254.347 43.624 254.347 41.56C254.347 38.968 254.995 36.928 256.291 35.44C257.635 33.952 259.795 32.872 262.771 32.2C265.747 31.528 269.851 31.192 275.083 31.192H276.883V29.536C276.883 27.184 276.379 25.48 275.371 24.424C274.363 23.32 272.731 22.768 270.475 22.768C269.083 22.768 267.667 22.984 266.227 23.416C264.787 23.8 263.083 24.376 261.115 25.144C259.867 25.768 258.955 26.08 258.379 26.08C257.515 26.08 256.795 25.768 256.219 25.144C255.691 24.52 255.427 23.704 255.427 22.696C255.427 21.88 255.619 21.184 256.003 20.608C256.435 19.984 257.131 19.408 258.091 18.88C259.771 17.968 261.763 17.248 264.067 16.72C266.419 16.192 268.723 15.928 270.979 15.928ZM268.747 46.096C271.147 46.096 273.091 45.304 274.579 43.72C276.115 42.088 276.883 40 276.883 37.456V35.944H275.587C272.371 35.944 269.875 36.088 268.099 36.376C266.323 36.664 265.051 37.168 264.283 37.888C263.515 38.608 263.131 39.592 263.131 40.84C263.131 42.376 263.659 43.648 264.715 44.656C265.819 45.616 267.163 46.096 268.747 46.096ZM314.254 16.072C315.502 15.976 316.486 16.24 317.206 16.864C317.926 17.488 318.286 18.424 318.286 19.672C318.286 20.968 317.974 21.928 317.35 22.552C316.726 23.176 315.598 23.584 313.966 23.776L311.806 23.992C308.974 24.28 306.886 25.24 305.542 26.872C304.246 28.504 303.598 30.544 303.598 32.992V48.112C303.598 49.504 303.166 50.584 302.302 51.352C301.438 52.072 300.358 52.432 299.062 52.432C297.766 52.432 296.686 52.072 295.822 51.352C295.006 50.584 294.598 49.504 294.598 48.112V20.248C294.598 18.904 295.006 17.872 295.822 17.152C296.686 16.432 297.742 16.072 298.99 16.072C300.238 16.072 301.246 16.432 302.014 17.152C302.782 17.824 303.166 18.808 303.166 20.104V22.984C304.078 20.872 305.422 19.24 307.198 18.088C309.022 16.936 311.038 16.288 313.246 16.144L314.254 16.072ZM337.513 52.576C333.913 52.576 330.745 51.832 328.009 50.344C325.321 48.856 323.233 46.72 321.745 43.936C320.257 41.152 319.513 37.912 319.513 34.216C319.513 30.52 320.257 27.304 321.745 24.568C323.233 21.784 325.321 19.648 328.009 18.16C330.745 16.672 333.913 15.928 337.513 15.928C341.113 15.928 344.257 16.672 346.945 18.16C349.681 19.648 351.769 21.784 353.209 24.568C354.697 27.304 355.441 30.52 355.441 34.216C355.441 37.912 354.697 41.152 353.209 43.936C351.769 46.72 349.681 48.856 346.945 50.344C344.257 51.832 341.113 52.576 337.513 52.576ZM337.441 45.592C340.369 45.592 342.601 44.632 344.137 42.712C345.673 40.792 346.441 37.96 346.441 34.216C346.441 30.52 345.673 27.712 344.137 25.792C342.601 23.824 340.393 22.84 337.513 22.84C334.633 22.84 332.401 23.824 330.817 25.792C329.281 27.712 328.513 30.52 328.513 34.216C328.513 37.96 329.281 40.792 330.817 42.712C332.353 44.632 334.561 45.592 337.441 45.592ZM390.663 16.072C392.055 16.072 393.159 16.456 393.975 17.224C394.791 17.992 395.199 19.024 395.199 20.32V48.256C395.199 49.504 394.767 50.512 393.903 51.28C393.087 52.048 392.007 52.432 390.663 52.432C389.367 52.432 388.335 52.072 387.567 51.352C386.799 50.632 386.415 49.648 386.415 48.4V46.6C385.311 48.52 383.823 50.008 381.951 51.064C380.079 52.072 377.967 52.576 375.615 52.576C366.975 52.576 362.655 47.728 362.655 38.032V20.32C362.655 19.024 363.063 17.992 363.879 17.224C364.695 16.456 365.775 16.072 367.119 16.072C368.511 16.072 369.615 16.456 370.431 17.224C371.247 17.992 371.655 19.024 371.655 20.32V38.104C371.655 40.6 372.159 42.448 373.167 43.648C374.175 44.848 375.759 45.448 377.919 45.448C380.415 45.448 382.407 44.632 383.895 43C385.431 41.32 386.199 39.112 386.199 36.376V20.32C386.199 19.024 386.607 17.992 387.423 17.224C388.239 16.456 389.319 16.072 390.663 16.072ZM417.311 52.576C412.079 52.576 407.855 51.544 404.639 49.48C403.103 48.568 402.335 47.272 402.335 45.592C402.335 44.632 402.599 43.864 403.127 43.288C403.655 42.664 404.303 42.352 405.071 42.352C405.887 42.352 407.015 42.736 408.455 43.504C409.991 44.224 411.383 44.776 412.631 45.16C413.927 45.544 415.559 45.736 417.527 45.736C419.543 45.736 421.103 45.4 422.207 44.728C423.359 44.056 423.935 43.12 423.935 41.92C423.935 41.104 423.695 40.456 423.215 39.976C422.783 39.496 421.967 39.064 420.767 38.68C419.615 38.248 417.839 37.768 415.439 37.24C411.167 36.376 408.095 35.152 406.223 33.568C404.399 31.984 403.487 29.8 403.487 27.016C403.487 24.904 404.111 23.008 405.359 21.328C406.607 19.6 408.311 18.28 410.471 17.368C412.679 16.408 415.175 15.928 417.959 15.928C419.975 15.928 421.919 16.192 423.791 16.72C425.663 17.2 427.343 17.92 428.831 18.88C430.367 19.84 431.135 21.112 431.135 22.696C431.135 23.656 430.871 24.472 430.343 25.144C429.815 25.768 429.167 26.08 428.399 26.08C427.871 26.08 427.343 25.984 426.815 25.792C426.335 25.552 425.711 25.216 424.943 24.784C423.551 24.064 422.351 23.536 421.343 23.2C420.335 22.816 419.087 22.624 417.599 22.624C415.823 22.624 414.407 22.984 413.351 23.704C412.343 24.424 411.839 25.408 411.839 26.656C411.839 27.856 412.367 28.768 413.423 29.392C414.479 30.016 416.519 30.64 419.543 31.264C422.759 31.936 425.279 32.704 427.103 33.568C428.927 34.432 430.223 35.512 430.991 36.808C431.807 38.104 432.215 39.76 432.215 41.776C432.215 45.04 430.847 47.656 428.111 49.624C425.423 51.592 421.823 52.576 417.311 52.576ZM467.376 42.352C468.192 42.352 468.84 42.664 469.32 43.288C469.848 43.912 470.112 44.752 470.112 45.808C470.112 47.296 469.224 48.544 467.448 49.552C465.816 50.464 463.968 51.208 461.904 51.784C459.84 52.312 457.872 52.576 456 52.576C450.336 52.576 445.848 50.944 442.536 47.68C439.224 44.416 437.568 39.952 437.568 34.288C437.568 30.688 438.288 27.496 439.728 24.712C441.168 21.928 443.184 19.768 445.776 18.232C448.416 16.696 451.392 15.928 454.704 15.928C457.872 15.928 460.632 16.624 462.984 18.016C465.336 19.408 467.16 21.376 468.456 23.92C469.752 26.464 470.4 29.464 470.4 32.92C470.4 34.984 469.488 36.016 467.664 36.016H446.424C446.712 39.328 447.648 41.776 449.232 43.36C450.816 44.896 453.12 45.664 456.144 45.664C457.68 45.664 459.024 45.472 460.176 45.088C461.376 44.704 462.72 44.176 464.208 43.504C465.648 42.736 466.704 42.352 467.376 42.352ZM454.92 22.264C452.472 22.264 450.504 23.032 449.016 24.568C447.576 26.104 446.712 28.312 446.424 31.192H462.696C462.6 28.264 461.88 26.056 460.536 24.568C459.192 23.032 457.32 22.264 454.92 22.264ZM482.226 52.432C480.93 52.432 479.85 52.072 478.986 51.352C478.17 50.584 477.762 49.504 477.762 48.112V5.128C477.762 3.736 478.17 2.68 478.986 1.96C479.85 1.24 480.93 0.879997 482.226 0.879997C483.522 0.879997 484.602 1.24 485.466 1.96C486.33 2.68 486.762 3.736 486.762 5.128V48.112C486.762 49.504 486.33 50.584 485.466 51.352C484.602 52.072 483.522 52.432 482.226 52.432ZM546.982 44.512C549.862 44.512 551.302 45.736 551.302 48.184C551.302 50.728 549.862 52 546.982 52H522.646C519.718 52 518.254 50.728 518.254 48.184C518.254 45.736 519.718 44.512 522.646 44.512H530.134V11.68L523.222 15.928C522.55 16.312 521.95 16.504 521.422 16.504C520.414 16.504 519.55 16.072 518.83 15.208C518.158 14.344 517.822 13.384 517.822 12.328C517.822 10.936 518.446 9.856 519.694 9.088L530.854 2.176C532.294 1.312 533.662 0.879997 534.958 0.879997C536.302 0.879997 537.382 1.288 538.198 2.104C539.014 2.92 539.422 4.048 539.422 5.488V44.512H546.982ZM589.29 45.376C590.154 46.24 590.586 47.224 590.586 48.328C590.586 49.384 590.178 50.344 589.362 51.208C588.546 52.024 587.586 52.432 586.482 52.432C585.282 52.432 584.25 51.928 583.386 50.92L573.234 39.688L563.082 50.92C562.17 51.88 561.138 52.36 559.986 52.36C558.93 52.36 557.994 51.952 557.178 51.136C556.362 50.32 555.954 49.384 555.954 48.328C555.954 47.224 556.386 46.24 557.25 45.376L567.762 33.928L557.826 23.128C556.962 22.264 556.53 21.28 556.53 20.176C556.53 19.072 556.938 18.136 557.754 17.368C558.57 16.552 559.506 16.144 560.562 16.144C561.714 16.144 562.746 16.624 563.658 17.584L573.234 28.096L582.81 17.584C583.722 16.624 584.754 16.144 585.906 16.144C587.01 16.144 587.946 16.552 588.714 17.368C589.53 18.136 589.938 19.072 589.938 20.176C589.938 21.28 589.506 22.264 588.642 23.128L578.706 33.928L589.29 45.376ZM602.382 41.632C604.014 41.632 605.334 42.232 606.342 43.432C607.35 44.632 607.854 46.384 607.854 48.688C607.854 53.248 606.27 57.184 603.102 60.496C602.478 61.12 601.806 61.432 601.086 61.432C600.366 61.432 599.742 61.192 599.214 60.712C598.686 60.232 598.422 59.656 598.422 58.984C598.422 58.408 598.662 57.856 599.142 57.328C600.582 55.792 601.518 54.064 601.95 52.144C600.558 52 599.406 51.472 598.494 50.56C597.63 49.6 597.198 48.424 597.198 47.032C597.198 45.496 597.678 44.224 598.638 43.216C599.646 42.16 600.894 41.632 602.382 41.632ZM666.86 44.512C669.74 44.512 671.18 45.736 671.18 48.184C671.18 50.728 669.74 52 666.86 52H639.5C638.252 52 637.268 51.64 636.548 50.92C635.828 50.152 635.468 49.216 635.468 48.112C635.468 46.672 636.02 45.376 637.124 44.224L653.54 26.584C655.556 24.376 657.02 22.36 657.932 20.536C658.892 18.664 659.372 16.816 659.372 14.992C659.372 12.736 658.724 11.008 657.428 9.808C656.132 8.608 654.284 8.008 651.884 8.008C649.916 8.008 647.996 8.392 646.124 9.16C644.3 9.88 642.452 10.888 640.58 12.184C640.1 12.52 639.62 12.808 639.14 13.048C638.66 13.24 638.18 13.336 637.7 13.336C636.884 13.336 636.164 12.952 635.54 12.184C634.964 11.416 634.676 10.504 634.676 9.448C634.676 8.728 634.796 8.104 635.036 7.576C635.324 7.048 635.756 6.544 636.332 6.064C638.444 4.384 640.916 3.064 643.748 2.104C646.58 1.096 649.412 0.591997 652.244 0.591997C657.188 0.591997 661.124 1.84 664.052 4.336C667.028 6.832 668.516 10.192 668.516 14.416C668.516 17.344 667.892 20.104 666.644 22.696C665.396 25.24 663.284 28.096 660.308 31.264L647.852 44.512H666.86ZM709.454 45.376C710.318 46.24 710.75 47.224 710.75 48.328C710.75 49.384 710.342 50.344 709.526 51.208C708.71 52.024 707.75 52.432 706.646 52.432C705.446 52.432 704.414 51.928 703.55 50.92L693.398 39.688L683.246 50.92C682.334 51.88 681.302 52.36 680.15 52.36C679.094 52.36 678.158 51.952 677.342 51.136C676.526 50.32 676.118 49.384 676.118 48.328C676.118 47.224 676.55 46.24 677.414 45.376L687.926 33.928L677.99 23.128C677.126 22.264 676.694 21.28 676.694 20.176C676.694 19.072 677.102 18.136 677.918 17.368C678.734 16.552 679.67 16.144 680.726 16.144C681.878 16.144 682.91 16.624 683.822 17.584L693.398 28.096L702.974 17.584C703.886 16.624 704.918 16.144 706.07 16.144C707.174 16.144 708.11 16.552 708.878 17.368C709.694 18.136 710.102 19.072 710.102 20.176C710.102 21.28 709.67 22.264 708.806 23.128L698.87 33.928L709.454 45.376Z" fill="black"/>
</svg>
