<svg width="458" height="66" viewBox="0 0 458 66" fill="none" xmlns="http://www.w3.org/2000/svg">
<path d="M40.2963 0.879997C41.6883 0.879997 42.7923 1.312 43.6083 2.176C44.4243 2.992 44.8323 4.096 44.8323 5.488V47.752C44.8323 49.144 44.4003 50.272 43.5363 51.136C42.7203 52 41.6403 52.432 40.2963 52.432C38.9043 52.432 37.8003 52 36.9843 51.136C36.1683 50.272 35.7603 49.144 35.7603 47.752V29.968H9.76834V47.752C9.76834 49.144 9.33634 50.272 8.47234 51.136C7.65634 52 6.55234 52.432 5.16034 52.432C3.81634 52.432 2.71234 52 1.84834 51.136C1.03234 50.272 0.624344 49.144 0.624344 47.752V5.488C0.624344 4.096 1.03234 2.992 1.84834 2.176C2.66434 1.312 3.76834 0.879997 5.16034 0.879997C6.55234 0.879997 7.65634 1.312 8.47234 2.176C9.33634 2.992 9.76834 4.096 9.76834 5.488V22.48H35.7603V5.488C35.7603 4.096 36.1683 2.992 36.9843 2.176C37.8003 1.312 38.9043 0.879997 40.2963 0.879997ZM82.8213 42.352C83.6373 42.352 84.2853 42.664 84.7653 43.288C85.2933 43.912 85.5573 44.752 85.5573 45.808C85.5573 47.296 84.6693 48.544 82.8933 49.552C81.2613 50.464 79.4133 51.208 77.3493 51.784C75.2853 52.312 73.3173 52.576 71.4453 52.576C65.7813 52.576 61.2933 50.944 57.9813 47.68C54.6693 44.416 53.0133 39.952 53.0133 34.288C53.0133 30.688 53.7333 27.496 55.1733 24.712C56.6133 21.928 58.6293 19.768 61.2213 18.232C63.8613 16.696 66.8373 15.928 70.1493 15.928C73.3173 15.928 76.0773 16.624 78.4293 18.016C80.7813 19.408 82.6053 21.376 83.9013 23.92C85.1973 26.464 85.8453 29.464 85.8453 32.92C85.8453 34.984 84.9333 36.016 83.1093 36.016H61.8693C62.1573 39.328 63.0933 41.776 64.6773 43.36C66.2613 44.896 68.5653 45.664 71.5893 45.664C73.1253 45.664 74.4693 45.472 75.6213 45.088C76.8213 44.704 78.1653 44.176 79.6533 43.504C81.0933 42.736 82.1493 42.352 82.8213 42.352ZM70.3653 22.264C67.9173 22.264 65.9493 23.032 64.4613 24.568C63.0213 26.104 62.1573 28.312 61.8693 31.192H78.1413C78.0453 28.264 77.3253 26.056 75.9813 24.568C74.6373 23.032 72.7653 22.264 70.3653 22.264ZM108.471 15.928C113.367 15.928 116.991 17.152 119.343 19.6C121.743 22 122.943 25.672 122.943 30.616V48.184C122.943 49.48 122.559 50.512 121.791 51.28C121.023 52 119.967 52.36 118.623 52.36C117.375 52.36 116.343 51.976 115.527 51.208C114.759 50.44 114.375 49.432 114.375 48.184V46.6C113.559 48.472 112.263 49.936 110.487 50.992C108.759 52.048 106.743 52.576 104.439 52.576C102.087 52.576 99.9513 52.096 98.0313 51.136C96.1113 50.176 94.5993 48.856 93.4953 47.176C92.3913 45.496 91.8393 43.624 91.8393 41.56C91.8393 38.968 92.4873 36.928 93.7833 35.44C95.1273 33.952 97.2873 32.872 100.263 32.2C103.239 31.528 107.343 31.192 112.575 31.192H114.375V29.536C114.375 27.184 113.871 25.48 112.863 24.424C111.855 23.32 110.223 22.768 107.967 22.768C106.575 22.768 105.159 22.984 103.719 23.416C102.279 23.8 100.575 24.376 98.6073 25.144C97.3593 25.768 96.4473 26.08 95.8713 26.08C95.0073 26.08 94.2873 25.768 93.7113 25.144C93.1833 24.52 92.9193 23.704 92.9193 22.696C92.9193 21.88 93.1113 21.184 93.4953 20.608C93.9273 19.984 94.6233 19.408 95.5833 18.88C97.2633 17.968 99.2553 17.248 101.559 16.72C103.911 16.192 106.215 15.928 108.471 15.928ZM106.239 46.096C108.639 46.096 110.583 45.304 112.071 43.72C113.607 42.088 114.375 40 114.375 37.456V35.944H113.079C109.863 35.944 107.367 36.088 105.591 36.376C103.815 36.664 102.543 37.168 101.775 37.888C101.007 38.608 100.623 39.592 100.623 40.84C100.623 42.376 101.151 43.648 102.207 44.656C103.311 45.616 104.655 46.096 106.239 46.096ZM161.466 0.879997C162.81 0.879997 163.914 1.264 164.778 2.032C165.642 2.8 166.074 3.808 166.074 5.056V48.112C166.074 49.408 165.666 50.44 164.85 51.208C164.034 51.976 162.954 52.36 161.61 52.36C160.266 52.36 159.186 51.976 158.37 51.208C157.554 50.44 157.146 49.408 157.146 48.112V46.312C156.09 48.28 154.554 49.816 152.538 50.92C150.57 52.024 148.314 52.576 145.77 52.576C142.746 52.576 140.034 51.808 137.634 50.272C135.282 48.736 133.434 46.576 132.09 43.792C130.794 40.96 130.146 37.72 130.146 34.072C130.146 30.424 130.794 27.232 132.09 24.496C133.434 21.76 135.282 19.648 137.634 18.16C139.986 16.672 142.698 15.928 145.77 15.928C148.314 15.928 150.57 16.456 152.538 17.512C154.506 18.568 156.018 20.056 157.074 21.976V4.912C157.074 3.712 157.458 2.752 158.226 2.032C159.042 1.264 160.122 0.879997 161.466 0.879997ZM148.146 45.592C151.026 45.592 153.234 44.608 154.77 42.64C156.354 40.672 157.146 37.864 157.146 34.216C157.146 30.568 156.354 27.784 154.77 25.864C153.234 23.896 151.05 22.912 148.218 22.912C145.338 22.912 143.106 23.872 141.522 25.792C139.938 27.712 139.146 30.472 139.146 34.072C139.146 37.72 139.938 40.552 141.522 42.568C143.106 44.584 145.314 45.592 148.146 45.592ZM203.196 42.352C204.012 42.352 204.66 42.664 205.14 43.288C205.668 43.912 205.932 44.752 205.932 45.808C205.932 47.296 205.044 48.544 203.268 49.552C201.636 50.464 199.788 51.208 197.724 51.784C195.66 52.312 193.692 52.576 191.82 52.576C186.156 52.576 181.668 50.944 178.356 47.68C175.044 44.416 173.388 39.952 173.388 34.288C173.388 30.688 174.108 27.496 175.548 24.712C176.988 21.928 179.004 19.768 181.596 18.232C184.236 16.696 187.212 15.928 190.524 15.928C193.692 15.928 196.452 16.624 198.804 18.016C201.156 19.408 202.98 21.376 204.276 23.92C205.572 26.464 206.22 29.464 206.22 32.92C206.22 34.984 205.308 36.016 203.484 36.016H182.244C182.532 39.328 183.468 41.776 185.052 43.36C186.636 44.896 188.94 45.664 191.964 45.664C193.5 45.664 194.844 45.472 195.996 45.088C197.196 44.704 198.54 44.176 200.028 43.504C201.468 42.736 202.524 42.352 203.196 42.352ZM190.74 22.264C188.292 22.264 186.324 23.032 184.836 24.568C183.396 26.104 182.532 28.312 182.244 31.192H198.516C198.42 28.264 197.7 26.056 196.356 24.568C195.012 23.032 193.14 22.264 190.74 22.264ZM233.238 16.072C234.486 15.976 235.47 16.24 236.19 16.864C236.91 17.488 237.27 18.424 237.27 19.672C237.27 20.968 236.958 21.928 236.334 22.552C235.71 23.176 234.582 23.584 232.95 23.776L230.79 23.992C227.958 24.28 225.87 25.24 224.526 26.872C223.23 28.504 222.582 30.544 222.582 32.992V48.112C222.582 49.504 222.15 50.584 221.286 51.352C220.422 52.072 219.342 52.432 218.046 52.432C216.75 52.432 215.67 52.072 214.806 51.352C213.99 50.584 213.582 49.504 213.582 48.112V20.248C213.582 18.904 213.99 17.872 214.806 17.152C215.67 16.432 216.726 16.072 217.974 16.072C219.222 16.072 220.23 16.432 220.998 17.152C221.766 17.824 222.15 18.808 222.15 20.104V22.984C223.062 20.872 224.406 19.24 226.182 18.088C228.006 16.936 230.022 16.288 232.23 16.144L233.238 16.072ZM266.092 52.432C264.7 52.432 263.572 52 262.708 51.136C261.892 50.272 261.484 49.144 261.484 47.752V5.488C261.484 4.096 261.892 2.992 262.708 2.176C263.572 1.312 264.7 0.879997 266.092 0.879997C267.532 0.879997 268.66 1.312 269.476 2.176C270.34 2.992 270.772 4.096 270.772 5.488V47.752C270.772 49.144 270.34 50.272 269.476 51.136C268.66 52 267.532 52.432 266.092 52.432ZM322.774 15.928C326.614 15.928 329.542 17.08 331.558 19.384C333.622 21.64 334.654 25.312 334.654 30.4V48.112C334.654 49.504 334.222 50.584 333.358 51.352C332.542 52.072 331.462 52.432 330.118 52.432C328.822 52.432 327.742 52.072 326.878 51.352C326.062 50.584 325.654 49.504 325.654 48.112V30.4C325.654 27.76 325.174 25.888 324.214 24.784C323.302 23.632 321.886 23.056 319.966 23.056C317.614 23.056 315.742 23.872 314.35 25.504C312.958 27.088 312.262 29.272 312.262 32.056V48.112C312.262 49.504 311.83 50.584 310.966 51.352C310.15 52.072 309.094 52.432 307.798 52.432C306.502 52.432 305.422 52.072 304.558 51.352C303.694 50.584 303.262 49.504 303.262 48.112V30.4C303.262 27.76 302.782 25.888 301.822 24.784C300.91 23.632 299.494 23.056 297.574 23.056C295.222 23.056 293.35 23.872 291.958 25.504C290.614 27.088 289.942 29.272 289.942 32.056V48.112C289.942 49.504 289.51 50.584 288.646 51.352C287.782 52.072 286.702 52.432 285.406 52.432C284.11 52.432 283.03 52.072 282.166 51.352C281.35 50.584 280.942 49.504 280.942 48.112V20.248C280.942 18.904 281.374 17.872 282.238 17.152C283.102 16.432 284.182 16.072 285.478 16.072C286.726 16.072 287.734 16.432 288.502 17.152C289.318 17.824 289.726 18.808 289.726 20.104V21.832C290.83 19.912 292.294 18.448 294.118 17.44C295.99 16.432 298.126 15.928 300.526 15.928C305.806 15.928 309.334 18.136 311.11 22.552C312.166 20.536 313.726 18.928 315.79 17.728C317.854 16.528 320.182 15.928 322.774 15.928ZM359.065 15.928C363.961 15.928 367.585 17.152 369.937 19.6C372.337 22 373.537 25.672 373.537 30.616V48.184C373.537 49.48 373.153 50.512 372.385 51.28C371.617 52 370.561 52.36 369.217 52.36C367.969 52.36 366.937 51.976 366.121 51.208C365.353 50.44 364.969 49.432 364.969 48.184V46.6C364.153 48.472 362.857 49.936 361.081 50.992C359.353 52.048 357.337 52.576 355.033 52.576C352.681 52.576 350.545 52.096 348.625 51.136C346.705 50.176 345.193 48.856 344.089 47.176C342.985 45.496 342.433 43.624 342.433 41.56C342.433 38.968 343.081 36.928 344.377 35.44C345.721 33.952 347.881 32.872 350.857 32.2C353.833 31.528 357.937 31.192 363.169 31.192H364.969V29.536C364.969 27.184 364.465 25.48 363.457 24.424C362.449 23.32 360.817 22.768 358.561 22.768C357.169 22.768 355.753 22.984 354.313 23.416C352.873 23.8 351.169 24.376 349.201 25.144C347.953 25.768 347.041 26.08 346.465 26.08C345.601 26.08 344.881 25.768 344.305 25.144C343.777 24.52 343.513 23.704 343.513 22.696C343.513 21.88 343.705 21.184 344.089 20.608C344.521 19.984 345.217 19.408 346.177 18.88C347.857 17.968 349.849 17.248 352.153 16.72C354.505 16.192 356.809 15.928 359.065 15.928ZM356.833 46.096C359.233 46.096 361.177 45.304 362.665 43.72C364.201 42.088 364.969 40 364.969 37.456V35.944H363.673C360.457 35.944 357.961 36.088 356.185 36.376C354.409 36.664 353.137 37.168 352.369 37.888C351.601 38.608 351.217 39.592 351.217 40.84C351.217 42.376 351.745 43.648 352.801 44.656C353.905 45.616 355.249 46.096 356.833 46.096ZM412.492 16.072C413.836 16.072 414.916 16.456 415.732 17.224C416.548 17.992 416.956 19.024 416.956 20.32V48.76C416.956 54.28 415.42 58.456 412.348 61.288C409.276 64.12 404.74 65.536 398.74 65.536C393.508 65.536 389.14 64.552 385.636 62.584C383.86 61.528 382.972 60.256 382.972 58.768C382.972 57.712 383.212 56.872 383.692 56.248C384.22 55.624 384.892 55.312 385.708 55.312C386.14 55.312 386.668 55.408 387.292 55.6C387.916 55.84 388.564 56.104 389.236 56.392C390.964 57.112 392.5 57.664 393.844 58.048C395.236 58.432 396.82 58.624 398.596 58.624C404.884 58.624 408.028 55.552 408.028 49.408V44.8C406.972 46.768 405.436 48.304 403.42 49.408C401.404 50.464 399.1 50.992 396.508 50.992C393.436 50.992 390.7 50.272 388.3 48.832C385.948 47.344 384.1 45.28 382.756 42.64C381.412 40 380.74 36.952 380.74 33.496C380.74 30.04 381.388 26.992 382.684 24.352C384.028 21.664 385.9 19.6 388.3 18.16C390.7 16.672 393.436 15.928 396.508 15.928C399.1 15.928 401.404 16.48 403.42 17.584C405.436 18.64 406.972 20.152 408.028 22.12V20.248C408.028 19 408.436 17.992 409.252 17.224C410.068 16.456 411.148 16.072 412.492 16.072ZM398.884 44.008C401.764 44.008 403.996 43.072 405.58 41.2C407.212 39.328 408.028 36.76 408.028 33.496C408.028 30.184 407.212 27.592 405.58 25.72C403.996 23.848 401.764 22.912 398.884 22.912C396.052 22.912 393.82 23.848 392.188 25.72C390.556 27.592 389.74 30.184 389.74 33.496C389.74 36.76 390.556 39.328 392.188 41.2C393.82 43.072 396.052 44.008 398.884 44.008ZM454.142 42.352C454.958 42.352 455.606 42.664 456.086 43.288C456.614 43.912 456.878 44.752 456.878 45.808C456.878 47.296 455.99 48.544 454.214 49.552C452.582 50.464 450.734 51.208 448.67 51.784C446.606 52.312 444.638 52.576 442.766 52.576C437.102 52.576 432.614 50.944 429.302 47.68C425.99 44.416 424.334 39.952 424.334 34.288C424.334 30.688 425.054 27.496 426.494 24.712C427.934 21.928 429.95 19.768 432.542 18.232C435.182 16.696 438.158 15.928 441.47 15.928C444.638 15.928 447.398 16.624 449.75 18.016C452.102 19.408 453.926 21.376 455.222 23.92C456.518 26.464 457.166 29.464 457.166 32.92C457.166 34.984 456.254 36.016 454.43 36.016H433.19C433.478 39.328 434.414 41.776 435.998 43.36C437.582 44.896 439.886 45.664 442.91 45.664C444.446 45.664 445.79 45.472 446.942 45.088C448.142 44.704 449.486 44.176 450.974 43.504C452.414 42.736 453.47 42.352 454.142 42.352ZM441.686 22.264C439.238 22.264 437.27 23.032 435.782 24.568C434.342 26.104 433.478 28.312 433.19 31.192H449.462C449.366 28.264 448.646 26.056 447.302 24.568C445.958 23.032 444.086 22.264 441.686 22.264Z" fill="black"/>
</svg>
