<svg width="741" height="62" viewBox="0 0 741 62" fill="none" xmlns="http://www.w3.org/2000/svg">
<path d="M4.96947 52C3.57747 52 2.49747 51.616 1.72947 50.848C0.961469 50.08 0.577469 49.024 0.577469 47.68V5.488C0.577469 4.096 0.985469 2.992 1.80147 2.176C2.66547 1.312 3.79347 0.879997 5.18547 0.879997C6.62547 0.879997 7.75347 1.312 8.56947 2.176C9.43347 2.992 9.86547 4.096 9.86547 5.488V44.368H30.0975C32.9775 44.368 34.4175 45.64 34.4175 48.184C34.4175 50.728 32.9775 52 30.0975 52H4.96947ZM67.376 42.352C68.192 42.352 68.84 42.664 69.32 43.288C69.848 43.912 70.112 44.752 70.112 45.808C70.112 47.296 69.224 48.544 67.448 49.552C65.816 50.464 63.968 51.208 61.904 51.784C59.84 52.312 57.872 52.576 56 52.576C50.336 52.576 45.848 50.944 42.536 47.68C39.224 44.416 37.568 39.952 37.568 34.288C37.568 30.688 38.288 27.496 39.728 24.712C41.168 21.928 43.184 19.768 45.776 18.232C48.416 16.696 51.392 15.928 54.704 15.928C57.872 15.928 60.632 16.624 62.984 18.016C65.336 19.408 67.16 21.376 68.456 23.92C69.752 26.464 70.4 29.464 70.4 32.92C70.4 34.984 69.488 36.016 67.664 36.016H46.424C46.712 39.328 47.648 41.776 49.232 43.36C50.816 44.896 53.12 45.664 56.144 45.664C57.68 45.664 59.024 45.472 60.176 45.088C61.376 44.704 62.72 44.176 64.208 43.504C65.648 42.736 66.704 42.352 67.376 42.352ZM54.92 22.264C52.472 22.264 50.504 23.032 49.016 24.568C47.576 26.104 46.712 28.312 46.424 31.192H62.696C62.6 28.264 61.88 26.056 60.536 24.568C59.192 23.032 57.32 22.264 54.92 22.264ZM95.5578 45.736C97.9578 45.88 99.1578 46.96 99.1578 48.976C99.1578 50.128 98.6778 51.016 97.7178 51.64C96.8058 52.216 95.4858 52.456 93.7578 52.36L91.8138 52.216C83.7498 51.64 79.7178 47.32 79.7178 39.256V23.56H76.1178C74.8218 23.56 73.8138 23.272 73.0938 22.696C72.4218 22.12 72.0858 21.28 72.0858 20.176C72.0858 19.072 72.4218 18.232 73.0938 17.656C73.8138 17.08 74.8218 16.792 76.1178 16.792H79.7178V10.168C79.7178 8.872 80.1258 7.84 80.9418 7.072C81.7578 6.304 82.8618 5.92 84.2538 5.92C85.5978 5.92 86.6778 6.304 87.4938 7.072C88.3098 7.84 88.7178 8.872 88.7178 10.168V16.792H94.8378C96.1338 16.792 97.1178 17.08 97.7898 17.656C98.5098 18.232 98.8698 19.072 98.8698 20.176C98.8698 21.28 98.5098 22.12 97.7898 22.696C97.1178 23.272 96.1338 23.56 94.8378 23.56H88.7178V39.904C88.7178 43.456 90.3498 45.352 93.6138 45.592L95.5578 45.736ZM121.644 45.736C124.044 45.88 125.244 46.96 125.244 48.976C125.244 50.128 124.764 51.016 123.804 51.64C122.892 52.216 121.572 52.456 119.844 52.36L117.9 52.216C109.836 51.64 105.804 47.32 105.804 39.256V23.56H102.204C100.908 23.56 99.8998 23.272 99.1798 22.696C98.5078 22.12 98.1718 21.28 98.1718 20.176C98.1718 19.072 98.5078 18.232 99.1798 17.656C99.8998 17.08 100.908 16.792 102.204 16.792H105.804V10.168C105.804 8.872 106.212 7.84 107.028 7.072C107.844 6.304 108.948 5.92 110.34 5.92C111.684 5.92 112.764 6.304 113.58 7.072C114.396 7.84 114.804 8.872 114.804 10.168V16.792H120.924C122.22 16.792 123.204 17.08 123.876 17.656C124.596 18.232 124.956 19.072 124.956 20.176C124.956 21.28 124.596 22.12 123.876 22.696C123.204 23.272 122.22 23.56 120.924 23.56H114.804V39.904C114.804 43.456 116.436 45.352 119.7 45.592L121.644 45.736ZM157.798 42.352C158.614 42.352 159.262 42.664 159.742 43.288C160.27 43.912 160.534 44.752 160.534 45.808C160.534 47.296 159.646 48.544 157.87 49.552C156.238 50.464 154.39 51.208 152.326 51.784C150.262 52.312 148.294 52.576 146.422 52.576C140.758 52.576 136.27 50.944 132.958 47.68C129.646 44.416 127.99 39.952 127.99 34.288C127.99 30.688 128.71 27.496 130.15 24.712C131.59 21.928 133.606 19.768 136.198 18.232C138.838 16.696 141.814 15.928 145.126 15.928C148.294 15.928 151.054 16.624 153.406 18.016C155.758 19.408 157.582 21.376 158.878 23.92C160.174 26.464 160.822 29.464 160.822 32.92C160.822 34.984 159.91 36.016 158.086 36.016H136.846C137.134 39.328 138.07 41.776 139.654 43.36C141.238 44.896 143.542 45.664 146.566 45.664C148.102 45.664 149.446 45.472 150.598 45.088C151.798 44.704 153.142 44.176 154.63 43.504C156.07 42.736 157.126 42.352 157.798 42.352ZM145.342 22.264C142.894 22.264 140.926 23.032 139.438 24.568C137.998 26.104 137.134 28.312 136.846 31.192H153.118C153.022 28.264 152.302 26.056 150.958 24.568C149.614 23.032 147.742 22.264 145.342 22.264ZM187.84 16.072C189.088 15.976 190.072 16.24 190.792 16.864C191.512 17.488 191.872 18.424 191.872 19.672C191.872 20.968 191.56 21.928 190.936 22.552C190.312 23.176 189.184 23.584 187.552 23.776L185.392 23.992C182.56 24.28 180.472 25.24 179.128 26.872C177.832 28.504 177.184 30.544 177.184 32.992V48.112C177.184 49.504 176.752 50.584 175.888 51.352C175.024 52.072 173.944 52.432 172.648 52.432C171.352 52.432 170.272 52.072 169.408 51.352C168.592 50.584 168.184 49.504 168.184 48.112V20.248C168.184 18.904 168.592 17.872 169.408 17.152C170.272 16.432 171.328 16.072 172.576 16.072C173.824 16.072 174.832 16.432 175.6 17.152C176.368 17.824 176.752 18.808 176.752 20.104V22.984C177.664 20.872 179.008 19.24 180.784 18.088C182.608 16.936 184.624 16.288 186.832 16.144L187.84 16.072ZM208.139 52.576C202.907 52.576 198.683 51.544 195.467 49.48C193.931 48.568 193.163 47.272 193.163 45.592C193.163 44.632 193.427 43.864 193.955 43.288C194.483 42.664 195.131 42.352 195.899 42.352C196.715 42.352 197.843 42.736 199.283 43.504C200.819 44.224 202.211 44.776 203.459 45.16C204.755 45.544 206.387 45.736 208.355 45.736C210.371 45.736 211.931 45.4 213.035 44.728C214.187 44.056 214.763 43.12 214.763 41.92C214.763 41.104 214.523 40.456 214.043 39.976C213.611 39.496 212.795 39.064 211.595 38.68C210.443 38.248 208.667 37.768 206.267 37.24C201.995 36.376 198.923 35.152 197.051 33.568C195.227 31.984 194.315 29.8 194.315 27.016C194.315 24.904 194.939 23.008 196.187 21.328C197.435 19.6 199.139 18.28 201.299 17.368C203.507 16.408 206.003 15.928 208.787 15.928C210.803 15.928 212.747 16.192 214.619 16.72C216.491 17.2 218.171 17.92 219.659 18.88C221.195 19.84 221.963 21.112 221.963 22.696C221.963 23.656 221.699 24.472 221.171 25.144C220.643 25.768 219.995 26.08 219.227 26.08C218.699 26.08 218.171 25.984 217.643 25.792C217.163 25.552 216.539 25.216 215.771 24.784C214.379 24.064 213.179 23.536 212.171 23.2C211.163 22.816 209.915 22.624 208.427 22.624C206.651 22.624 205.235 22.984 204.179 23.704C203.171 24.424 202.667 25.408 202.667 26.656C202.667 27.856 203.195 28.768 204.251 29.392C205.307 30.016 207.347 30.64 210.371 31.264C213.587 31.936 216.107 32.704 217.931 33.568C219.755 34.432 221.051 35.512 221.819 36.808C222.635 38.104 223.043 39.76 223.043 41.776C223.043 45.04 221.675 47.656 218.939 49.624C216.251 51.592 212.651 52.576 208.139 52.576ZM265.511 52.576C262.007 52.576 258.911 51.832 256.223 50.344C253.583 48.856 251.543 46.744 250.103 44.008C248.663 41.272 247.943 38.08 247.943 34.432C247.943 30.784 248.687 27.568 250.175 24.784C251.711 21.952 253.847 19.768 256.583 18.232C259.319 16.696 262.463 15.928 266.015 15.928C267.887 15.928 269.759 16.192 271.631 16.72C273.551 17.248 275.231 17.968 276.671 18.88C278.207 19.888 278.975 21.16 278.975 22.696C278.975 23.752 278.711 24.616 278.183 25.288C277.703 25.912 277.055 26.224 276.239 26.224C275.711 26.224 275.159 26.104 274.583 25.864C274.007 25.624 273.431 25.336 272.855 25C271.799 24.376 270.791 23.896 269.831 23.56C268.871 23.176 267.767 22.984 266.519 22.984C263.543 22.984 261.239 23.968 259.607 25.936C258.023 27.856 257.231 30.64 257.231 34.288C257.231 37.888 258.023 40.672 259.607 42.64C261.239 44.56 263.543 45.52 266.519 45.52C267.719 45.52 268.775 45.352 269.687 45.016C270.647 44.632 271.703 44.128 272.855 43.504C273.575 43.072 274.199 42.76 274.727 42.568C275.255 42.328 275.783 42.208 276.311 42.208C277.079 42.208 277.727 42.544 278.255 43.216C278.783 43.888 279.047 44.728 279.047 45.736C279.047 46.552 278.855 47.272 278.471 47.896C278.135 48.472 277.559 49 276.743 49.48C275.255 50.44 273.527 51.208 271.559 51.784C269.591 52.312 267.575 52.576 265.511 52.576ZM300.307 15.928C305.203 15.928 308.827 17.152 311.179 19.6C313.579 22 314.779 25.672 314.779 30.616V48.184C314.779 49.48 314.395 50.512 313.627 51.28C312.859 52 311.803 52.36 310.459 52.36C309.211 52.36 308.179 51.976 307.363 51.208C306.595 50.44 306.211 49.432 306.211 48.184V46.6C305.395 48.472 304.099 49.936 302.323 50.992C300.595 52.048 298.579 52.576 296.275 52.576C293.923 52.576 291.787 52.096 289.867 51.136C287.947 50.176 286.435 48.856 285.331 47.176C284.227 45.496 283.675 43.624 283.675 41.56C283.675 38.968 284.323 36.928 285.619 35.44C286.963 33.952 289.123 32.872 292.099 32.2C295.075 31.528 299.179 31.192 304.411 31.192H306.211V29.536C306.211 27.184 305.707 25.48 304.699 24.424C303.691 23.32 302.059 22.768 299.803 22.768C298.411 22.768 296.995 22.984 295.555 23.416C294.115 23.8 292.411 24.376 290.443 25.144C289.195 25.768 288.283 26.08 287.707 26.08C286.843 26.08 286.123 25.768 285.547 25.144C285.019 24.52 284.755 23.704 284.755 22.696C284.755 21.88 284.947 21.184 285.331 20.608C285.763 19.984 286.459 19.408 287.419 18.88C289.099 17.968 291.091 17.248 293.395 16.72C295.747 16.192 298.051 15.928 300.307 15.928ZM298.075 46.096C300.475 46.096 302.419 45.304 303.907 43.72C305.443 42.088 306.211 40 306.211 37.456V35.944H304.915C301.699 35.944 299.203 36.088 297.427 36.376C295.651 36.664 294.379 37.168 293.611 37.888C292.843 38.608 292.459 39.592 292.459 40.84C292.459 42.376 292.987 43.648 294.043 44.656C295.147 45.616 296.491 46.096 298.075 46.096ZM343.582 16.072C344.83 15.976 345.814 16.24 346.534 16.864C347.254 17.488 347.614 18.424 347.614 19.672C347.614 20.968 347.302 21.928 346.678 22.552C346.054 23.176 344.926 23.584 343.294 23.776L341.134 23.992C338.302 24.28 336.214 25.24 334.87 26.872C333.574 28.504 332.926 30.544 332.926 32.992V48.112C332.926 49.504 332.494 50.584 331.63 51.352C330.766 52.072 329.686 52.432 328.39 52.432C327.094 52.432 326.014 52.072 325.15 51.352C324.334 50.584 323.926 49.504 323.926 48.112V20.248C323.926 18.904 324.334 17.872 325.15 17.152C326.014 16.432 327.07 16.072 328.318 16.072C329.566 16.072 330.574 16.432 331.342 17.152C332.11 17.824 332.494 18.808 332.494 20.104V22.984C333.406 20.872 334.75 19.24 336.526 18.088C338.35 16.936 340.366 16.288 342.574 16.144L343.582 16.072ZM366.841 52.576C363.241 52.576 360.073 51.832 357.337 50.344C354.649 48.856 352.561 46.72 351.073 43.936C349.585 41.152 348.841 37.912 348.841 34.216C348.841 30.52 349.585 27.304 351.073 24.568C352.561 21.784 354.649 19.648 357.337 18.16C360.073 16.672 363.241 15.928 366.841 15.928C370.441 15.928 373.585 16.672 376.273 18.16C379.009 19.648 381.097 21.784 382.537 24.568C384.025 27.304 384.769 30.52 384.769 34.216C384.769 37.912 384.025 41.152 382.537 43.936C381.097 46.72 379.009 48.856 376.273 50.344C373.585 51.832 370.441 52.576 366.841 52.576ZM366.769 45.592C369.697 45.592 371.929 44.632 373.465 42.712C375.001 40.792 375.769 37.96 375.769 34.216C375.769 30.52 375.001 27.712 373.465 25.792C371.929 23.824 369.721 22.84 366.841 22.84C363.961 22.84 361.729 23.824 360.145 25.792C358.609 27.712 357.841 30.52 357.841 34.216C357.841 37.96 358.609 40.792 360.145 42.712C361.681 44.632 363.889 45.592 366.769 45.592ZM419.992 16.072C421.384 16.072 422.488 16.456 423.304 17.224C424.12 17.992 424.528 19.024 424.528 20.32V48.256C424.528 49.504 424.096 50.512 423.232 51.28C422.416 52.048 421.336 52.432 419.992 52.432C418.696 52.432 417.664 52.072 416.896 51.352C416.128 50.632 415.744 49.648 415.744 48.4V46.6C414.64 48.52 413.152 50.008 411.28 51.064C409.408 52.072 407.296 52.576 404.944 52.576C396.304 52.576 391.984 47.728 391.984 38.032V20.32C391.984 19.024 392.392 17.992 393.208 17.224C394.024 16.456 395.104 16.072 396.448 16.072C397.84 16.072 398.944 16.456 399.76 17.224C400.576 17.992 400.984 19.024 400.984 20.32V38.104C400.984 40.6 401.488 42.448 402.496 43.648C403.504 44.848 405.088 45.448 407.248 45.448C409.744 45.448 411.736 44.632 413.224 43C414.76 41.32 415.528 39.112 415.528 36.376V20.32C415.528 19.024 415.936 17.992 416.752 17.224C417.568 16.456 418.648 16.072 419.992 16.072ZM446.639 52.576C441.407 52.576 437.183 51.544 433.967 49.48C432.431 48.568 431.663 47.272 431.663 45.592C431.663 44.632 431.927 43.864 432.455 43.288C432.983 42.664 433.631 42.352 434.399 42.352C435.215 42.352 436.343 42.736 437.783 43.504C439.319 44.224 440.711 44.776 441.959 45.16C443.255 45.544 444.887 45.736 446.855 45.736C448.871 45.736 450.431 45.4 451.535 44.728C452.687 44.056 453.263 43.12 453.263 41.92C453.263 41.104 453.023 40.456 452.543 39.976C452.111 39.496 451.295 39.064 450.095 38.68C448.943 38.248 447.167 37.768 444.767 37.24C440.495 36.376 437.423 35.152 435.551 33.568C433.727 31.984 432.815 29.8 432.815 27.016C432.815 24.904 433.439 23.008 434.687 21.328C435.935 19.6 437.639 18.28 439.799 17.368C442.007 16.408 444.503 15.928 447.287 15.928C449.303 15.928 451.247 16.192 453.119 16.72C454.991 17.2 456.671 17.92 458.159 18.88C459.695 19.84 460.463 21.112 460.463 22.696C460.463 23.656 460.199 24.472 459.671 25.144C459.143 25.768 458.495 26.08 457.727 26.08C457.199 26.08 456.671 25.984 456.143 25.792C455.663 25.552 455.039 25.216 454.271 24.784C452.879 24.064 451.679 23.536 450.671 23.2C449.663 22.816 448.415 22.624 446.927 22.624C445.151 22.624 443.735 22.984 442.679 23.704C441.671 24.424 441.167 25.408 441.167 26.656C441.167 27.856 441.695 28.768 442.751 29.392C443.807 30.016 445.847 30.64 448.871 31.264C452.087 31.936 454.607 32.704 456.431 33.568C458.255 34.432 459.551 35.512 460.319 36.808C461.135 38.104 461.543 39.76 461.543 41.776C461.543 45.04 460.175 47.656 457.439 49.624C454.751 51.592 451.151 52.576 446.639 52.576ZM496.704 42.352C497.52 42.352 498.168 42.664 498.648 43.288C499.176 43.912 499.44 44.752 499.44 45.808C499.44 47.296 498.552 48.544 496.776 49.552C495.144 50.464 493.296 51.208 491.232 51.784C489.168 52.312 487.2 52.576 485.328 52.576C479.664 52.576 475.176 50.944 471.864 47.68C468.552 44.416 466.896 39.952 466.896 34.288C466.896 30.688 467.616 27.496 469.056 24.712C470.496 21.928 472.512 19.768 475.104 18.232C477.744 16.696 480.72 15.928 484.032 15.928C487.2 15.928 489.96 16.624 492.312 18.016C494.664 19.408 496.488 21.376 497.784 23.92C499.08 26.464 499.728 29.464 499.728 32.92C499.728 34.984 498.816 36.016 496.992 36.016H475.752C476.04 39.328 476.976 41.776 478.56 43.36C480.144 44.896 482.448 45.664 485.472 45.664C487.008 45.664 488.352 45.472 489.504 45.088C490.704 44.704 492.048 44.176 493.536 43.504C494.976 42.736 496.032 42.352 496.704 42.352ZM484.248 22.264C481.8 22.264 479.832 23.032 478.344 24.568C476.904 26.104 476.04 28.312 475.752 31.192H492.024C491.928 28.264 491.208 26.056 489.864 24.568C488.52 23.032 486.648 22.264 484.248 22.264ZM511.554 52.432C510.258 52.432 509.178 52.072 508.314 51.352C507.498 50.584 507.09 49.504 507.09 48.112V5.128C507.09 3.736 507.498 2.68 508.314 1.96C509.178 1.24 510.258 0.879997 511.554 0.879997C512.85 0.879997 513.93 1.24 514.794 1.96C515.658 2.68 516.09 3.736 516.09 5.128V48.112C516.09 49.504 515.658 50.584 514.794 51.352C513.93 52.072 512.85 52.432 511.554 52.432ZM576.31 44.512C579.19 44.512 580.63 45.736 580.63 48.184C580.63 50.728 579.19 52 576.31 52H551.974C549.046 52 547.582 50.728 547.582 48.184C547.582 45.736 549.046 44.512 551.974 44.512H559.462V11.68L552.55 15.928C551.878 16.312 551.278 16.504 550.75 16.504C549.742 16.504 548.878 16.072 548.158 15.208C547.486 14.344 547.15 13.384 547.15 12.328C547.15 10.936 547.774 9.856 549.022 9.088L560.182 2.176C561.622 1.312 562.99 0.879997 564.286 0.879997C565.63 0.879997 566.71 1.288 567.526 2.104C568.342 2.92 568.75 4.048 568.75 5.488V44.512H576.31ZM618.618 45.376C619.482 46.24 619.914 47.224 619.914 48.328C619.914 49.384 619.506 50.344 618.69 51.208C617.874 52.024 616.914 52.432 615.81 52.432C614.61 52.432 613.578 51.928 612.714 50.92L602.562 39.688L592.41 50.92C591.498 51.88 590.466 52.36 589.314 52.36C588.258 52.36 587.322 51.952 586.506 51.136C585.69 50.32 585.282 49.384 585.282 48.328C585.282 47.224 585.714 46.24 586.578 45.376L597.09 33.928L587.154 23.128C586.29 22.264 585.858 21.28 585.858 20.176C585.858 19.072 586.266 18.136 587.082 17.368C587.898 16.552 588.834 16.144 589.89 16.144C591.042 16.144 592.074 16.624 592.986 17.584L602.562 28.096L612.138 17.584C613.05 16.624 614.082 16.144 615.234 16.144C616.338 16.144 617.274 16.552 618.042 17.368C618.858 18.136 619.266 19.072 619.266 20.176C619.266 21.28 618.834 22.264 617.97 23.128L608.034 33.928L618.618 45.376ZM631.71 41.632C633.342 41.632 634.662 42.232 635.67 43.432C636.678 44.632 637.182 46.384 637.182 48.688C637.182 53.248 635.598 57.184 632.43 60.496C631.806 61.12 631.134 61.432 630.414 61.432C629.694 61.432 629.07 61.192 628.542 60.712C628.014 60.232 627.75 59.656 627.75 58.984C627.75 58.408 627.99 57.856 628.47 57.328C629.91 55.792 630.846 54.064 631.278 52.144C629.886 52 628.734 51.472 627.822 50.56C626.958 49.6 626.526 48.424 626.526 47.032C626.526 45.496 627.006 44.224 627.966 43.216C628.974 42.16 630.222 41.632 631.71 41.632ZM696.188 44.512C699.068 44.512 700.508 45.736 700.508 48.184C700.508 50.728 699.068 52 696.188 52H668.828C667.58 52 666.596 51.64 665.876 50.92C665.156 50.152 664.796 49.216 664.796 48.112C664.796 46.672 665.348 45.376 666.452 44.224L682.868 26.584C684.884 24.376 686.348 22.36 687.26 20.536C688.22 18.664 688.7 16.816 688.7 14.992C688.7 12.736 688.052 11.008 686.756 9.808C685.46 8.608 683.612 8.008 681.212 8.008C679.244 8.008 677.324 8.392 675.452 9.16C673.628 9.88 671.78 10.888 669.908 12.184C669.428 12.52 668.948 12.808 668.468 13.048C667.988 13.24 667.508 13.336 667.028 13.336C666.212 13.336 665.492 12.952 664.868 12.184C664.292 11.416 664.004 10.504 664.004 9.448C664.004 8.728 664.124 8.104 664.364 7.576C664.652 7.048 665.084 6.544 665.66 6.064C667.772 4.384 670.244 3.064 673.076 2.104C675.908 1.096 678.74 0.591997 681.572 0.591997C686.516 0.591997 690.452 1.84 693.38 4.336C696.356 6.832 697.844 10.192 697.844 14.416C697.844 17.344 697.22 20.104 695.972 22.696C694.724 25.24 692.612 28.096 689.636 31.264L677.18 44.512H696.188ZM738.782 45.376C739.646 46.24 740.078 47.224 740.078 48.328C740.078 49.384 739.67 50.344 738.854 51.208C738.038 52.024 737.078 52.432 735.974 52.432C734.774 52.432 733.742 51.928 732.878 50.92L722.726 39.688L712.574 50.92C711.662 51.88 710.63 52.36 709.478 52.36C708.422 52.36 707.486 51.952 706.67 51.136C705.854 50.32 705.446 49.384 705.446 48.328C705.446 47.224 705.878 46.24 706.742 45.376L717.254 33.928L707.318 23.128C706.454 22.264 706.022 21.28 706.022 20.176C706.022 19.072 706.43 18.136 707.246 17.368C708.062 16.552 708.998 16.144 710.054 16.144C711.206 16.144 712.238 16.624 713.15 17.584L722.726 28.096L732.302 17.584C733.214 16.624 734.246 16.144 735.398 16.144C736.502 16.144 737.438 16.552 738.206 17.368C739.022 18.136 739.43 19.072 739.43 20.176C739.43 21.28 738.998 22.264 738.134 23.128L728.198 33.928L738.782 45.376Z" fill="black"/>
</svg>
