<svg width="649" height="62" viewBox="0 0 649 62" fill="none" xmlns="http://www.w3.org/2000/svg">
<path d="M5.27806 52C3.88606 52 2.80606 51.616 2.03806 50.848C1.27006 50.08 0.886063 49.024 0.886063 47.68V5.488C0.886063 4.096 1.29406 2.992 2.11006 2.176C2.97406 1.312 4.10206 0.879997 5.49406 0.879997C6.93406 0.879997 8.06206 1.312 8.87806 2.176C9.74206 2.992 10.1741 4.096 10.1741 5.488V44.368H30.4061C33.2861 44.368 34.7261 45.64 34.7261 48.184C34.7261 50.728 33.2861 52 30.4061 52H5.27806ZM44.4956 52.432C43.1996 52.432 42.1196 52.072 41.2556 51.352C40.4396 50.584 40.0316 49.504 40.0316 48.112V20.32C40.0316 18.928 40.4396 17.872 41.2556 17.152C42.1196 16.432 43.1996 16.072 44.4956 16.072C45.7916 16.072 46.8716 16.432 47.7356 17.152C48.5996 17.872 49.0316 18.928 49.0316 20.32V48.112C49.0316 49.504 48.5996 50.584 47.7356 51.352C46.8716 52.072 45.7916 52.432 44.4956 52.432ZM44.4956 9.664C42.8636 9.664 41.5676 9.232 40.6076 8.368C39.6476 7.456 39.1676 6.28 39.1676 4.84C39.1676 3.4 39.6476 2.248 40.6076 1.384C41.5676 0.519999 42.8636 0.0879989 44.4956 0.0879989C46.0796 0.0879989 47.3516 0.519999 48.3116 1.384C49.3196 2.248 49.8236 3.4 49.8236 4.84C49.8236 6.28 49.3436 7.456 48.3836 8.368C47.4236 9.232 46.1276 9.664 44.4956 9.664ZM78.7608 15.928C82.9848 15.928 86.1288 17.128 88.1928 19.528C90.2568 21.928 91.2888 25.552 91.2888 30.4V48.112C91.2888 49.456 90.8808 50.512 90.0648 51.28C89.2968 52.048 88.2168 52.432 86.8248 52.432C85.4328 52.432 84.3288 52.048 83.5128 51.28C82.6968 50.512 82.2888 49.456 82.2888 48.112V30.904C82.2888 28.168 81.7608 26.176 80.7048 24.928C79.6968 23.68 78.0888 23.056 75.8808 23.056C73.2888 23.056 71.2008 23.872 69.6168 25.504C68.0808 27.136 67.3128 29.32 67.3128 32.056V48.112C67.3128 49.456 66.9048 50.512 66.0888 51.28C65.2728 52.048 64.1688 52.432 62.7768 52.432C61.3848 52.432 60.2808 52.048 59.4648 51.28C58.6968 50.512 58.3128 49.456 58.3128 48.112V20.248C58.3128 19 58.7208 17.992 59.5368 17.224C60.3528 16.456 61.4568 16.072 62.8488 16.072C64.0968 16.072 65.1048 16.456 65.8728 17.224C66.6888 17.944 67.0968 18.904 67.0968 20.104V22.048C68.2968 20.08 69.9048 18.568 71.9208 17.512C73.9368 16.456 76.2168 15.928 78.7608 15.928ZM131.75 45.016C132.71 45.928 133.19 46.96 133.19 48.112C133.19 49.216 132.782 50.2 131.966 51.064C131.198 51.928 130.286 52.36 129.23 52.36C128.174 52.36 127.19 51.928 126.278 51.064L109.43 35.8V48.112C109.43 49.504 108.998 50.56 108.134 51.28C107.27 52 106.19 52.36 104.894 52.36C103.598 52.36 102.518 52 101.654 51.28C100.838 50.56 100.43 49.504 100.43 48.112V5.128C100.43 3.736 100.838 2.68 101.654 1.96C102.518 1.24 103.598 0.879997 104.894 0.879997C106.19 0.879997 107.27 1.24 108.134 1.96C108.998 2.68 109.43 3.736 109.43 5.128V32.2L124.838 17.44C125.702 16.576 126.686 16.144 127.79 16.144C128.894 16.144 129.854 16.552 130.67 17.368C131.486 18.184 131.894 19.144 131.894 20.248C131.894 21.352 131.438 22.36 130.526 23.272L119.222 33.784L131.75 45.016ZM174.202 52.576C170.698 52.576 167.602 51.832 164.914 50.344C162.274 48.856 160.234 46.744 158.794 44.008C157.354 41.272 156.634 38.08 156.634 34.432C156.634 30.784 157.378 27.568 158.866 24.784C160.402 21.952 162.538 19.768 165.274 18.232C168.01 16.696 171.154 15.928 174.706 15.928C176.578 15.928 178.45 16.192 180.322 16.72C182.242 17.248 183.922 17.968 185.362 18.88C186.898 19.888 187.666 21.16 187.666 22.696C187.666 23.752 187.402 24.616 186.874 25.288C186.394 25.912 185.746 26.224 184.93 26.224C184.402 26.224 183.85 26.104 183.274 25.864C182.698 25.624 182.122 25.336 181.546 25C180.49 24.376 179.482 23.896 178.522 23.56C177.562 23.176 176.458 22.984 175.21 22.984C172.234 22.984 169.93 23.968 168.298 25.936C166.714 27.856 165.922 30.64 165.922 34.288C165.922 37.888 166.714 40.672 168.298 42.64C169.93 44.56 172.234 45.52 175.21 45.52C176.41 45.52 177.466 45.352 178.378 45.016C179.338 44.632 180.394 44.128 181.546 43.504C182.266 43.072 182.89 42.76 183.418 42.568C183.946 42.328 184.474 42.208 185.002 42.208C185.77 42.208 186.418 42.544 186.946 43.216C187.474 43.888 187.738 44.728 187.738 45.736C187.738 46.552 187.546 47.272 187.162 47.896C186.826 48.472 186.25 49 185.434 49.48C183.946 50.44 182.218 51.208 180.25 51.784C178.282 52.312 176.266 52.576 174.202 52.576ZM208.999 15.928C213.895 15.928 217.519 17.152 219.871 19.6C222.271 22 223.471 25.672 223.471 30.616V48.184C223.471 49.48 223.087 50.512 222.319 51.28C221.551 52 220.495 52.36 219.151 52.36C217.903 52.36 216.871 51.976 216.055 51.208C215.287 50.44 214.903 49.432 214.903 48.184V46.6C214.087 48.472 212.791 49.936 211.015 50.992C209.287 52.048 207.271 52.576 204.967 52.576C202.615 52.576 200.479 52.096 198.559 51.136C196.639 50.176 195.127 48.856 194.023 47.176C192.919 45.496 192.367 43.624 192.367 41.56C192.367 38.968 193.015 36.928 194.311 35.44C195.655 33.952 197.815 32.872 200.791 32.2C203.767 31.528 207.871 31.192 213.103 31.192H214.903V29.536C214.903 27.184 214.399 25.48 213.391 24.424C212.383 23.32 210.751 22.768 208.495 22.768C207.103 22.768 205.687 22.984 204.247 23.416C202.807 23.8 201.103 24.376 199.135 25.144C197.887 25.768 196.975 26.08 196.399 26.08C195.535 26.08 194.815 25.768 194.239 25.144C193.711 24.52 193.447 23.704 193.447 22.696C193.447 21.88 193.639 21.184 194.023 20.608C194.455 19.984 195.151 19.408 196.111 18.88C197.791 17.968 199.783 17.248 202.087 16.72C204.439 16.192 206.743 15.928 208.999 15.928ZM206.767 46.096C209.167 46.096 211.111 45.304 212.599 43.72C214.135 42.088 214.903 40 214.903 37.456V35.944H213.607C210.391 35.944 207.895 36.088 206.119 36.376C204.343 36.664 203.071 37.168 202.303 37.888C201.535 38.608 201.151 39.592 201.151 40.84C201.151 42.376 201.679 43.648 202.735 44.656C203.839 45.616 205.183 46.096 206.767 46.096ZM252.274 16.072C253.522 15.976 254.506 16.24 255.226 16.864C255.946 17.488 256.306 18.424 256.306 19.672C256.306 20.968 255.994 21.928 255.37 22.552C254.746 23.176 253.618 23.584 251.986 23.776L249.826 23.992C246.994 24.28 244.906 25.24 243.562 26.872C242.266 28.504 241.618 30.544 241.618 32.992V48.112C241.618 49.504 241.186 50.584 240.322 51.352C239.458 52.072 238.378 52.432 237.082 52.432C235.786 52.432 234.706 52.072 233.842 51.352C233.026 50.584 232.618 49.504 232.618 48.112V20.248C232.618 18.904 233.026 17.872 233.842 17.152C234.706 16.432 235.762 16.072 237.01 16.072C238.258 16.072 239.266 16.432 240.034 17.152C240.802 17.824 241.186 18.808 241.186 20.104V22.984C242.098 20.872 243.442 19.24 245.218 18.088C247.042 16.936 249.058 16.288 251.266 16.144L252.274 16.072ZM275.533 52.576C271.933 52.576 268.765 51.832 266.029 50.344C263.341 48.856 261.253 46.72 259.765 43.936C258.277 41.152 257.533 37.912 257.533 34.216C257.533 30.52 258.277 27.304 259.765 24.568C261.253 21.784 263.341 19.648 266.029 18.16C268.765 16.672 271.933 15.928 275.533 15.928C279.133 15.928 282.277 16.672 284.965 18.16C287.701 19.648 289.789 21.784 291.229 24.568C292.717 27.304 293.461 30.52 293.461 34.216C293.461 37.912 292.717 41.152 291.229 43.936C289.789 46.72 287.701 48.856 284.965 50.344C282.277 51.832 279.133 52.576 275.533 52.576ZM275.461 45.592C278.389 45.592 280.621 44.632 282.157 42.712C283.693 40.792 284.461 37.96 284.461 34.216C284.461 30.52 283.693 27.712 282.157 25.792C280.621 23.824 278.413 22.84 275.533 22.84C272.653 22.84 270.421 23.824 268.837 25.792C267.301 27.712 266.533 30.52 266.533 34.216C266.533 37.96 267.301 40.792 268.837 42.712C270.373 44.632 272.581 45.592 275.461 45.592ZM328.683 16.072C330.075 16.072 331.179 16.456 331.995 17.224C332.811 17.992 333.219 19.024 333.219 20.32V48.256C333.219 49.504 332.787 50.512 331.923 51.28C331.107 52.048 330.027 52.432 328.683 52.432C327.387 52.432 326.355 52.072 325.587 51.352C324.819 50.632 324.435 49.648 324.435 48.4V46.6C323.331 48.52 321.843 50.008 319.971 51.064C318.099 52.072 315.987 52.576 313.635 52.576C304.995 52.576 300.675 47.728 300.675 38.032V20.32C300.675 19.024 301.083 17.992 301.899 17.224C302.715 16.456 303.795 16.072 305.139 16.072C306.531 16.072 307.635 16.456 308.451 17.224C309.267 17.992 309.675 19.024 309.675 20.32V38.104C309.675 40.6 310.179 42.448 311.187 43.648C312.195 44.848 313.779 45.448 315.939 45.448C318.435 45.448 320.427 44.632 321.915 43C323.451 41.32 324.219 39.112 324.219 36.376V20.32C324.219 19.024 324.627 17.992 325.443 17.224C326.259 16.456 327.339 16.072 328.683 16.072ZM355.33 52.576C350.098 52.576 345.874 51.544 342.658 49.48C341.122 48.568 340.354 47.272 340.354 45.592C340.354 44.632 340.618 43.864 341.146 43.288C341.674 42.664 342.322 42.352 343.09 42.352C343.906 42.352 345.034 42.736 346.474 43.504C348.01 44.224 349.402 44.776 350.65 45.16C351.946 45.544 353.578 45.736 355.546 45.736C357.562 45.736 359.122 45.4 360.226 44.728C361.378 44.056 361.954 43.12 361.954 41.92C361.954 41.104 361.714 40.456 361.234 39.976C360.802 39.496 359.986 39.064 358.786 38.68C357.634 38.248 355.858 37.768 353.458 37.24C349.186 36.376 346.114 35.152 344.242 33.568C342.418 31.984 341.506 29.8 341.506 27.016C341.506 24.904 342.13 23.008 343.378 21.328C344.626 19.6 346.33 18.28 348.49 17.368C350.698 16.408 353.194 15.928 355.978 15.928C357.994 15.928 359.938 16.192 361.81 16.72C363.682 17.2 365.362 17.92 366.85 18.88C368.386 19.84 369.154 21.112 369.154 22.696C369.154 23.656 368.89 24.472 368.362 25.144C367.834 25.768 367.186 26.08 366.418 26.08C365.89 26.08 365.362 25.984 364.834 25.792C364.354 25.552 363.73 25.216 362.962 24.784C361.57 24.064 360.37 23.536 359.362 23.2C358.354 22.816 357.106 22.624 355.618 22.624C353.842 22.624 352.426 22.984 351.37 23.704C350.362 24.424 349.858 25.408 349.858 26.656C349.858 27.856 350.386 28.768 351.442 29.392C352.498 30.016 354.538 30.64 357.562 31.264C360.778 31.936 363.298 32.704 365.122 33.568C366.946 34.432 368.242 35.512 369.01 36.808C369.826 38.104 370.234 39.76 370.234 41.776C370.234 45.04 368.866 47.656 366.13 49.624C363.442 51.592 359.842 52.576 355.33 52.576ZM405.396 42.352C406.212 42.352 406.86 42.664 407.34 43.288C407.868 43.912 408.132 44.752 408.132 45.808C408.132 47.296 407.244 48.544 405.468 49.552C403.836 50.464 401.988 51.208 399.924 51.784C397.86 52.312 395.892 52.576 394.02 52.576C388.356 52.576 383.868 50.944 380.556 47.68C377.244 44.416 375.588 39.952 375.588 34.288C375.588 30.688 376.308 27.496 377.748 24.712C379.188 21.928 381.204 19.768 383.796 18.232C386.436 16.696 389.412 15.928 392.724 15.928C395.892 15.928 398.652 16.624 401.004 18.016C403.356 19.408 405.18 21.376 406.476 23.92C407.772 26.464 408.42 29.464 408.42 32.92C408.42 34.984 407.508 36.016 405.684 36.016H384.444C384.732 39.328 385.668 41.776 387.252 43.36C388.836 44.896 391.14 45.664 394.164 45.664C395.7 45.664 397.044 45.472 398.196 45.088C399.396 44.704 400.74 44.176 402.228 43.504C403.668 42.736 404.724 42.352 405.396 42.352ZM392.94 22.264C390.492 22.264 388.524 23.032 387.036 24.568C385.596 26.104 384.732 28.312 384.444 31.192H400.716C400.62 28.264 399.9 26.056 398.556 24.568C397.212 23.032 395.34 22.264 392.94 22.264ZM420.246 52.432C418.95 52.432 417.87 52.072 417.006 51.352C416.19 50.584 415.782 49.504 415.782 48.112V5.128C415.782 3.736 416.19 2.68 417.006 1.96C417.87 1.24 418.95 0.879997 420.246 0.879997C421.542 0.879997 422.622 1.24 423.486 1.96C424.35 2.68 424.782 3.736 424.782 5.128V48.112C424.782 49.504 424.35 50.584 423.486 51.352C422.622 52.072 421.542 52.432 420.246 52.432ZM485.002 44.512C487.882 44.512 489.322 45.736 489.322 48.184C489.322 50.728 487.882 52 485.002 52H460.666C457.738 52 456.274 50.728 456.274 48.184C456.274 45.736 457.738 44.512 460.666 44.512H468.154V11.68L461.242 15.928C460.57 16.312 459.97 16.504 459.442 16.504C458.434 16.504 457.57 16.072 456.85 15.208C456.178 14.344 455.842 13.384 455.842 12.328C455.842 10.936 456.466 9.856 457.714 9.088L468.874 2.176C470.314 1.312 471.682 0.879997 472.978 0.879997C474.322 0.879997 475.402 1.288 476.218 2.104C477.034 2.92 477.442 4.048 477.442 5.488V44.512H485.002ZM527.31 45.376C528.174 46.24 528.606 47.224 528.606 48.328C528.606 49.384 528.198 50.344 527.382 51.208C526.566 52.024 525.606 52.432 524.502 52.432C523.302 52.432 522.27 51.928 521.406 50.92L511.254 39.688L501.102 50.92C500.19 51.88 499.158 52.36 498.006 52.36C496.95 52.36 496.014 51.952 495.198 51.136C494.382 50.32 493.974 49.384 493.974 48.328C493.974 47.224 494.406 46.24 495.27 45.376L505.782 33.928L495.846 23.128C494.982 22.264 494.55 21.28 494.55 20.176C494.55 19.072 494.958 18.136 495.774 17.368C496.59 16.552 497.526 16.144 498.582 16.144C499.734 16.144 500.766 16.624 501.678 17.584L511.254 28.096L520.83 17.584C521.742 16.624 522.774 16.144 523.926 16.144C525.03 16.144 525.966 16.552 526.734 17.368C527.55 18.136 527.958 19.072 527.958 20.176C527.958 21.28 527.526 22.264 526.662 23.128L516.726 33.928L527.31 45.376ZM540.401 41.632C542.033 41.632 543.353 42.232 544.361 43.432C545.369 44.632 545.873 46.384 545.873 48.688C545.873 53.248 544.289 57.184 541.121 60.496C540.497 61.12 539.825 61.432 539.105 61.432C538.385 61.432 537.761 61.192 537.233 60.712C536.705 60.232 536.441 59.656 536.441 58.984C536.441 58.408 536.681 57.856 537.161 57.328C538.601 55.792 539.537 54.064 539.969 52.144C538.577 52 537.425 51.472 536.513 50.56C535.649 49.6 535.217 48.424 535.217 47.032C535.217 45.496 535.697 44.224 536.657 43.216C537.665 42.16 538.913 41.632 540.401 41.632ZM604.879 44.512C607.759 44.512 609.199 45.736 609.199 48.184C609.199 50.728 607.759 52 604.879 52H577.519C576.271 52 575.287 51.64 574.567 50.92C573.847 50.152 573.487 49.216 573.487 48.112C573.487 46.672 574.039 45.376 575.143 44.224L591.559 26.584C593.575 24.376 595.039 22.36 595.951 20.536C596.911 18.664 597.391 16.816 597.391 14.992C597.391 12.736 596.743 11.008 595.447 9.808C594.151 8.608 592.303 8.008 589.903 8.008C587.935 8.008 586.015 8.392 584.143 9.16C582.319 9.88 580.471 10.888 578.599 12.184C578.119 12.52 577.639 12.808 577.159 13.048C576.679 13.24 576.199 13.336 575.719 13.336C574.903 13.336 574.183 12.952 573.559 12.184C572.983 11.416 572.695 10.504 572.695 9.448C572.695 8.728 572.815 8.104 573.055 7.576C573.343 7.048 573.775 6.544 574.351 6.064C576.463 4.384 578.935 3.064 581.767 2.104C584.599 1.096 587.431 0.591997 590.263 0.591997C595.207 0.591997 599.143 1.84 602.071 4.336C605.047 6.832 606.535 10.192 606.535 14.416C606.535 17.344 605.911 20.104 604.663 22.696C603.415 25.24 601.303 28.096 598.327 31.264L585.871 44.512H604.879ZM647.474 45.376C648.338 46.24 648.77 47.224 648.77 48.328C648.77 49.384 648.362 50.344 647.546 51.208C646.73 52.024 645.77 52.432 644.666 52.432C643.466 52.432 642.434 51.928 641.57 50.92L631.418 39.688L621.266 50.92C620.354 51.88 619.322 52.36 618.17 52.36C617.114 52.36 616.178 51.952 615.362 51.136C614.546 50.32 614.138 49.384 614.138 48.328C614.138 47.224 614.57 46.24 615.434 45.376L625.946 33.928L616.01 23.128C615.146 22.264 614.714 21.28 614.714 20.176C614.714 19.072 615.122 18.136 615.938 17.368C616.754 16.552 617.69 16.144 618.746 16.144C619.898 16.144 620.93 16.624 621.842 17.584L631.418 28.096L640.994 17.584C641.906 16.624 642.938 16.144 644.09 16.144C645.194 16.144 646.13 16.552 646.898 17.368C647.714 18.136 648.122 19.072 648.122 20.176C648.122 21.28 647.69 22.264 646.826 23.128L636.89 33.928L647.474 45.376Z" fill="black"/>
</svg>
