<svg width="825" height="66" viewBox="0 0 825 66" fill="none" xmlns="http://www.w3.org/2000/svg">
<path d="M20.4072 52.648C16.7112 52.648 13.2072 52.168 9.89519 51.208C6.63119 50.2 3.96719 48.856 1.90319 47.176C0.799188 46.36 0.247188 45.208 0.247188 43.72C0.247188 42.712 0.535188 41.848 1.11119 41.128C1.73519 40.36 2.45519 39.976 3.27119 39.976C4.13519 39.976 5.11919 40.312 6.22319 40.984C8.28719 42.472 10.4472 43.552 12.7032 44.224C14.9592 44.896 17.4552 45.232 20.1912 45.232C23.6952 45.232 26.3832 44.632 28.2552 43.432C30.1272 42.184 31.0632 40.384 31.0632 38.032C31.0632 36.208 30.1752 34.816 28.3992 33.856C26.6712 32.848 23.7672 31.888 19.6872 30.976C15.4632 30.064 12.0312 29.008 9.39119 27.808C6.75119 26.608 4.75919 25.072 3.41519 23.2C2.07119 21.328 1.39919 18.952 1.39919 16.072C1.39919 13.096 2.23919 10.432 3.91919 8.08C5.59919 5.728 7.92719 3.904 10.9032 2.608C13.9272 1.264 17.3112 0.591997 21.0552 0.591997C27.9192 0.591997 33.5112 2.416 37.8312 6.064C38.4552 6.592 38.8872 7.12 39.1272 7.648C39.4152 8.128 39.5592 8.752 39.5592 9.52C39.5592 10.528 39.2472 11.416 38.6232 12.184C38.0472 12.904 37.3512 13.264 36.5352 13.264C36.0552 13.264 35.5992 13.192 35.1672 13.048C34.7832 12.904 34.2552 12.64 33.5832 12.256C31.6152 10.816 29.6952 9.76 27.8232 9.088C25.9992 8.368 23.7432 8.008 21.0552 8.008C17.7912 8.008 15.1992 8.68 13.2792 10.024C11.4072 11.32 10.4712 13.144 10.4712 15.496C10.4712 17.464 11.3112 18.976 12.9912 20.032C14.6712 21.088 17.5272 22.072 21.5592 22.984C25.8312 23.944 29.2872 25.024 31.9272 26.224C34.6152 27.376 36.6552 28.864 38.0472 30.688C39.4872 32.512 40.2072 34.792 40.2072 37.528C40.2072 40.504 39.3672 43.144 37.6872 45.448C36.0552 47.704 33.7272 49.48 30.7032 50.776C27.7272 52.024 24.2952 52.648 20.4072 52.648ZM52.4253 52.432C51.1293 52.432 50.0493 52.072 49.1853 51.352C48.3693 50.584 47.9613 49.504 47.9613 48.112V5.128C47.9613 3.736 48.3693 2.68 49.1853 1.96C50.0493 1.24 51.1293 0.879997 52.4253 0.879997C53.7213 0.879997 54.8013 1.24 55.6653 1.96C56.5293 2.68 56.9613 3.736 56.9613 5.128V48.112C56.9613 49.504 56.5293 50.584 55.6653 51.352C54.8013 52.072 53.7213 52.432 52.4253 52.432ZM70.7065 52.432C69.4105 52.432 68.3305 52.072 67.4665 51.352C66.6505 50.584 66.2425 49.504 66.2425 48.112V20.32C66.2425 18.928 66.6505 17.872 67.4665 17.152C68.3305 16.432 69.4105 16.072 70.7065 16.072C72.0025 16.072 73.0825 16.432 73.9465 17.152C74.8105 17.872 75.2425 18.928 75.2425 20.32V48.112C75.2425 49.504 74.8105 50.584 73.9465 51.352C73.0825 52.072 72.0025 52.432 70.7065 52.432ZM70.7065 9.664C69.0745 9.664 67.7785 9.232 66.8185 8.368C65.8585 7.456 65.3785 6.28 65.3785 4.84C65.3785 3.4 65.8585 2.248 66.8185 1.384C67.7785 0.519999 69.0745 0.0879989 70.7065 0.0879989C72.2905 0.0879989 73.5625 0.519999 74.5225 1.384C75.5305 2.248 76.0345 3.4 76.0345 4.84C76.0345 6.28 75.5545 7.456 74.5945 8.368C73.6345 9.232 72.3385 9.664 70.7065 9.664ZM104.972 15.928C109.196 15.928 112.34 17.128 114.404 19.528C116.468 21.928 117.5 25.552 117.5 30.4V48.112C117.5 49.456 117.092 50.512 116.276 51.28C115.508 52.048 114.428 52.432 113.036 52.432C111.644 52.432 110.54 52.048 109.724 51.28C108.908 50.512 108.5 49.456 108.5 48.112V30.904C108.5 28.168 107.972 26.176 106.916 24.928C105.908 23.68 104.3 23.056 102.092 23.056C99.4998 23.056 97.4118 23.872 95.8278 25.504C94.2918 27.136 93.5238 29.32 93.5238 32.056V48.112C93.5238 49.456 93.1158 50.512 92.2998 51.28C91.4838 52.048 90.3798 52.432 88.9878 52.432C87.5958 52.432 86.4918 52.048 85.6758 51.28C84.9078 50.512 84.5238 49.456 84.5238 48.112V20.248C84.5238 19 84.9318 17.992 85.7478 17.224C86.5638 16.456 87.6678 16.072 89.0598 16.072C90.3078 16.072 91.3158 16.456 92.0838 17.224C92.8998 17.944 93.3078 18.904 93.3078 20.104V22.048C94.5078 20.08 96.1158 18.568 98.1318 17.512C100.148 16.456 102.428 15.928 104.972 15.928ZM156.449 16.072C157.793 16.072 158.873 16.456 159.689 17.224C160.505 17.992 160.913 19.024 160.913 20.32V48.76C160.913 54.28 159.377 58.456 156.305 61.288C153.233 64.12 148.697 65.536 142.697 65.536C137.465 65.536 133.097 64.552 129.593 62.584C127.817 61.528 126.929 60.256 126.929 58.768C126.929 57.712 127.169 56.872 127.649 56.248C128.177 55.624 128.849 55.312 129.665 55.312C130.097 55.312 130.625 55.408 131.249 55.6C131.873 55.84 132.521 56.104 133.193 56.392C134.921 57.112 136.457 57.664 137.801 58.048C139.193 58.432 140.777 58.624 142.553 58.624C148.841 58.624 151.985 55.552 151.985 49.408V44.8C150.929 46.768 149.393 48.304 147.377 49.408C145.361 50.464 143.057 50.992 140.465 50.992C137.393 50.992 134.657 50.272 132.257 48.832C129.905 47.344 128.057 45.28 126.713 42.64C125.369 40 124.697 36.952 124.697 33.496C124.697 30.04 125.345 26.992 126.641 24.352C127.985 21.664 129.857 19.6 132.257 18.16C134.657 16.672 137.393 15.928 140.465 15.928C143.057 15.928 145.361 16.48 147.377 17.584C149.393 18.64 150.929 20.152 151.985 22.12V20.248C151.985 19 152.393 17.992 153.209 17.224C154.025 16.456 155.105 16.072 156.449 16.072ZM142.841 44.008C145.721 44.008 147.953 43.072 149.537 41.2C151.169 39.328 151.985 36.76 151.985 33.496C151.985 30.184 151.169 27.592 149.537 25.72C147.953 23.848 145.721 22.912 142.841 22.912C140.009 22.912 137.777 23.848 136.145 25.72C134.513 27.592 133.697 30.184 133.697 33.496C133.697 36.76 134.513 39.328 136.145 41.2C137.777 43.072 140.009 44.008 142.841 44.008ZM182.979 52.576C177.747 52.576 173.523 51.544 170.307 49.48C168.771 48.568 168.003 47.272 168.003 45.592C168.003 44.632 168.267 43.864 168.795 43.288C169.323 42.664 169.971 42.352 170.739 42.352C171.555 42.352 172.683 42.736 174.123 43.504C175.659 44.224 177.051 44.776 178.299 45.16C179.595 45.544 181.227 45.736 183.195 45.736C185.211 45.736 186.771 45.4 187.875 44.728C189.027 44.056 189.603 43.12 189.603 41.92C189.603 41.104 189.363 40.456 188.883 39.976C188.451 39.496 187.635 39.064 186.435 38.68C185.283 38.248 183.507 37.768 181.107 37.24C176.835 36.376 173.763 35.152 171.891 33.568C170.067 31.984 169.155 29.8 169.155 27.016C169.155 24.904 169.779 23.008 171.027 21.328C172.275 19.6 173.979 18.28 176.139 17.368C178.347 16.408 180.843 15.928 183.627 15.928C185.643 15.928 187.587 16.192 189.459 16.72C191.331 17.2 193.011 17.92 194.499 18.88C196.035 19.84 196.803 21.112 196.803 22.696C196.803 23.656 196.539 24.472 196.011 25.144C195.483 25.768 194.835 26.08 194.067 26.08C193.539 26.08 193.011 25.984 192.483 25.792C192.003 25.552 191.379 25.216 190.611 24.784C189.219 24.064 188.019 23.536 187.011 23.2C186.003 22.816 184.755 22.624 183.267 22.624C181.491 22.624 180.075 22.984 179.019 23.704C178.011 24.424 177.507 25.408 177.507 26.656C177.507 27.856 178.035 28.768 179.091 29.392C180.147 30.016 182.187 30.64 185.211 31.264C188.427 31.936 190.947 32.704 192.771 33.568C194.595 34.432 195.891 35.512 196.659 36.808C197.475 38.104 197.883 39.76 197.883 41.776C197.883 45.04 196.515 47.656 193.779 49.624C191.091 51.592 187.491 52.576 182.979 52.576ZM225.772 15.928C234.028 15.928 238.156 20.752 238.156 30.4V48.112C238.156 49.456 237.748 50.512 236.932 51.28C236.164 52.048 235.084 52.432 233.692 52.432C232.3 52.432 231.196 52.048 230.38 51.28C229.564 50.512 229.156 49.456 229.156 48.112V30.4C229.156 27.856 228.628 26.008 227.572 24.856C226.564 23.656 224.956 23.056 222.748 23.056C220.156 23.056 218.068 23.872 216.484 25.504C214.948 27.136 214.18 29.32 214.18 32.056V48.112C214.18 49.456 213.772 50.512 212.956 51.28C212.14 52.048 211.036 52.432 209.644 52.432C208.252 52.432 207.148 52.048 206.332 51.28C205.564 50.512 205.18 49.456 205.18 48.112V5.056C205.18 3.808 205.588 2.8 206.404 2.032C207.268 1.264 208.372 0.879997 209.716 0.879997C211.06 0.879997 212.14 1.24 212.956 1.96C213.772 2.68 214.18 3.664 214.18 4.912V21.688C215.38 19.816 216.964 18.4 218.932 17.44C220.948 16.432 223.228 15.928 225.772 15.928ZM263.353 52.576C259.753 52.576 256.585 51.832 253.849 50.344C251.161 48.856 249.073 46.72 247.585 43.936C246.097 41.152 245.353 37.912 245.353 34.216C245.353 30.52 246.097 27.304 247.585 24.568C249.073 21.784 251.161 19.648 253.849 18.16C256.585 16.672 259.753 15.928 263.353 15.928C266.953 15.928 270.097 16.672 272.785 18.16C275.521 19.648 277.609 21.784 279.049 24.568C280.537 27.304 281.281 30.52 281.281 34.216C281.281 37.912 280.537 41.152 279.049 43.936C277.609 46.72 275.521 48.856 272.785 50.344C270.097 51.832 266.953 52.576 263.353 52.576ZM263.281 45.592C266.209 45.592 268.441 44.632 269.977 42.712C271.513 40.792 272.281 37.96 272.281 34.216C272.281 30.52 271.513 27.712 269.977 25.792C268.441 23.824 266.233 22.84 263.353 22.84C260.473 22.84 258.241 23.824 256.657 25.792C255.121 27.712 254.353 30.52 254.353 34.216C254.353 37.96 255.121 40.792 256.657 42.712C258.193 44.632 260.401 45.592 263.281 45.592ZM306.788 45.736C309.188 45.88 310.388 46.96 310.388 48.976C310.388 50.128 309.908 51.016 308.948 51.64C308.036 52.216 306.716 52.456 304.988 52.36L303.044 52.216C294.98 51.64 290.948 47.32 290.948 39.256V23.56H287.348C286.052 23.56 285.044 23.272 284.324 22.696C283.652 22.12 283.316 21.28 283.316 20.176C283.316 19.072 283.652 18.232 284.324 17.656C285.044 17.08 286.052 16.792 287.348 16.792H290.948V10.168C290.948 8.872 291.356 7.84 292.172 7.072C292.988 6.304 294.092 5.92 295.484 5.92C296.828 5.92 297.908 6.304 298.724 7.072C299.54 7.84 299.948 8.872 299.948 10.168V16.792H306.068C307.364 16.792 308.348 17.08 309.02 17.656C309.74 18.232 310.1 19.072 310.1 20.176C310.1 21.28 309.74 22.12 309.02 22.696C308.348 23.272 307.364 23.56 306.068 23.56H299.948V39.904C299.948 43.456 301.58 45.352 304.844 45.592L306.788 45.736ZM350.249 52.576C346.745 52.576 343.649 51.832 340.961 50.344C338.321 48.856 336.281 46.744 334.841 44.008C333.401 41.272 332.681 38.08 332.681 34.432C332.681 30.784 333.425 27.568 334.913 24.784C336.449 21.952 338.585 19.768 341.321 18.232C344.057 16.696 347.201 15.928 350.753 15.928C352.625 15.928 354.497 16.192 356.369 16.72C358.289 17.248 359.969 17.968 361.409 18.88C362.945 19.888 363.713 21.16 363.713 22.696C363.713 23.752 363.449 24.616 362.921 25.288C362.441 25.912 361.793 26.224 360.977 26.224C360.449 26.224 359.897 26.104 359.321 25.864C358.745 25.624 358.169 25.336 357.593 25C356.537 24.376 355.529 23.896 354.569 23.56C353.609 23.176 352.505 22.984 351.257 22.984C348.281 22.984 345.977 23.968 344.345 25.936C342.761 27.856 341.969 30.64 341.969 34.288C341.969 37.888 342.761 40.672 344.345 42.64C345.977 44.56 348.281 45.52 351.257 45.52C352.457 45.52 353.513 45.352 354.425 45.016C355.385 44.632 356.441 44.128 357.593 43.504C358.313 43.072 358.937 42.76 359.465 42.568C359.993 42.328 360.521 42.208 361.049 42.208C361.817 42.208 362.465 42.544 362.993 43.216C363.521 43.888 363.785 44.728 363.785 45.736C363.785 46.552 363.593 47.272 363.209 47.896C362.873 48.472 362.297 49 361.481 49.48C359.993 50.44 358.265 51.208 356.297 51.784C354.329 52.312 352.313 52.576 350.249 52.576ZM385.046 15.928C389.942 15.928 393.566 17.152 395.918 19.6C398.318 22 399.518 25.672 399.518 30.616V48.184C399.518 49.48 399.134 50.512 398.366 51.28C397.598 52 396.542 52.36 395.198 52.36C393.95 52.36 392.918 51.976 392.102 51.208C391.334 50.44 390.95 49.432 390.95 48.184V46.6C390.134 48.472 388.838 49.936 387.062 50.992C385.334 52.048 383.318 52.576 381.014 52.576C378.662 52.576 376.526 52.096 374.606 51.136C372.686 50.176 371.174 48.856 370.07 47.176C368.966 45.496 368.414 43.624 368.414 41.56C368.414 38.968 369.062 36.928 370.358 35.44C371.702 33.952 373.862 32.872 376.838 32.2C379.814 31.528 383.918 31.192 389.15 31.192H390.95V29.536C390.95 27.184 390.446 25.48 389.438 24.424C388.43 23.32 386.798 22.768 384.542 22.768C383.15 22.768 381.734 22.984 380.294 23.416C378.854 23.8 377.15 24.376 375.182 25.144C373.934 25.768 373.022 26.08 372.446 26.08C371.582 26.08 370.862 25.768 370.286 25.144C369.758 24.52 369.494 23.704 369.494 22.696C369.494 21.88 369.686 21.184 370.07 20.608C370.502 19.984 371.198 19.408 372.158 18.88C373.838 17.968 375.83 17.248 378.134 16.72C380.486 16.192 382.79 15.928 385.046 15.928ZM382.814 46.096C385.214 46.096 387.158 45.304 388.646 43.72C390.182 42.088 390.95 40 390.95 37.456V35.944H389.654C386.438 35.944 383.942 36.088 382.166 36.376C380.39 36.664 379.118 37.168 378.35 37.888C377.582 38.608 377.198 39.592 377.198 40.84C377.198 42.376 377.726 43.648 378.782 44.656C379.886 45.616 381.23 46.096 382.814 46.096ZM428.32 16.072C429.568 15.976 430.552 16.24 431.272 16.864C431.992 17.488 432.352 18.424 432.352 19.672C432.352 20.968 432.04 21.928 431.416 22.552C430.792 23.176 429.664 23.584 428.032 23.776L425.872 23.992C423.04 24.28 420.952 25.24 419.608 26.872C418.312 28.504 417.664 30.544 417.664 32.992V48.112C417.664 49.504 417.232 50.584 416.368 51.352C415.504 52.072 414.424 52.432 413.128 52.432C411.832 52.432 410.752 52.072 409.888 51.352C409.072 50.584 408.664 49.504 408.664 48.112V20.248C408.664 18.904 409.072 17.872 409.888 17.152C410.752 16.432 411.808 16.072 413.056 16.072C414.304 16.072 415.312 16.432 416.08 17.152C416.848 17.824 417.232 18.808 417.232 20.104V22.984C418.144 20.872 419.488 19.24 421.264 18.088C423.088 16.936 425.104 16.288 427.312 16.144L428.32 16.072ZM451.58 52.576C447.98 52.576 444.812 51.832 442.076 50.344C439.388 48.856 437.3 46.72 435.812 43.936C434.324 41.152 433.58 37.912 433.58 34.216C433.58 30.52 434.324 27.304 435.812 24.568C437.3 21.784 439.388 19.648 442.076 18.16C444.812 16.672 447.98 15.928 451.58 15.928C455.18 15.928 458.324 16.672 461.012 18.16C463.748 19.648 465.836 21.784 467.276 24.568C468.764 27.304 469.508 30.52 469.508 34.216C469.508 37.912 468.764 41.152 467.276 43.936C465.836 46.72 463.748 48.856 461.012 50.344C458.324 51.832 455.18 52.576 451.58 52.576ZM451.508 45.592C454.436 45.592 456.668 44.632 458.204 42.712C459.74 40.792 460.508 37.96 460.508 34.216C460.508 30.52 459.74 27.712 458.204 25.792C456.668 23.824 454.46 22.84 451.58 22.84C448.7 22.84 446.468 23.824 444.884 25.792C443.348 27.712 442.58 30.52 442.58 34.216C442.58 37.96 443.348 40.792 444.884 42.712C446.42 44.632 448.628 45.592 451.508 45.592ZM504.73 16.072C506.122 16.072 507.226 16.456 508.042 17.224C508.858 17.992 509.266 19.024 509.266 20.32V48.256C509.266 49.504 508.834 50.512 507.97 51.28C507.154 52.048 506.074 52.432 504.73 52.432C503.434 52.432 502.402 52.072 501.634 51.352C500.866 50.632 500.482 49.648 500.482 48.4V46.6C499.378 48.52 497.89 50.008 496.018 51.064C494.146 52.072 492.034 52.576 489.682 52.576C481.042 52.576 476.722 47.728 476.722 38.032V20.32C476.722 19.024 477.13 17.992 477.946 17.224C478.762 16.456 479.842 16.072 481.186 16.072C482.578 16.072 483.682 16.456 484.498 17.224C485.314 17.992 485.722 19.024 485.722 20.32V38.104C485.722 40.6 486.226 42.448 487.234 43.648C488.242 44.848 489.826 45.448 491.986 45.448C494.482 45.448 496.474 44.632 497.962 43C499.498 41.32 500.266 39.112 500.266 36.376V20.32C500.266 19.024 500.674 17.992 501.49 17.224C502.306 16.456 503.386 16.072 504.73 16.072ZM531.377 52.576C526.145 52.576 521.921 51.544 518.705 49.48C517.169 48.568 516.401 47.272 516.401 45.592C516.401 44.632 516.665 43.864 517.193 43.288C517.721 42.664 518.369 42.352 519.137 42.352C519.953 42.352 521.081 42.736 522.521 43.504C524.057 44.224 525.449 44.776 526.697 45.16C527.993 45.544 529.625 45.736 531.593 45.736C533.609 45.736 535.169 45.4 536.273 44.728C537.425 44.056 538.001 43.12 538.001 41.92C538.001 41.104 537.761 40.456 537.281 39.976C536.849 39.496 536.033 39.064 534.833 38.68C533.681 38.248 531.905 37.768 529.505 37.24C525.233 36.376 522.161 35.152 520.289 33.568C518.465 31.984 517.553 29.8 517.553 27.016C517.553 24.904 518.177 23.008 519.425 21.328C520.673 19.6 522.377 18.28 524.537 17.368C526.745 16.408 529.241 15.928 532.025 15.928C534.041 15.928 535.985 16.192 537.857 16.72C539.729 17.2 541.409 17.92 542.897 18.88C544.433 19.84 545.201 21.112 545.201 22.696C545.201 23.656 544.937 24.472 544.409 25.144C543.881 25.768 543.233 26.08 542.465 26.08C541.937 26.08 541.409 25.984 540.881 25.792C540.401 25.552 539.777 25.216 539.009 24.784C537.617 24.064 536.417 23.536 535.409 23.2C534.401 22.816 533.153 22.624 531.665 22.624C529.889 22.624 528.473 22.984 527.417 23.704C526.409 24.424 525.905 25.408 525.905 26.656C525.905 27.856 526.433 28.768 527.489 29.392C528.545 30.016 530.585 30.64 533.609 31.264C536.825 31.936 539.345 32.704 541.169 33.568C542.993 34.432 544.289 35.512 545.057 36.808C545.873 38.104 546.281 39.76 546.281 41.776C546.281 45.04 544.913 47.656 542.177 49.624C539.489 51.592 535.889 52.576 531.377 52.576ZM581.442 42.352C582.258 42.352 582.906 42.664 583.386 43.288C583.914 43.912 584.178 44.752 584.178 45.808C584.178 47.296 583.29 48.544 581.514 49.552C579.882 50.464 578.034 51.208 575.97 51.784C573.906 52.312 571.938 52.576 570.066 52.576C564.402 52.576 559.914 50.944 556.602 47.68C553.29 44.416 551.634 39.952 551.634 34.288C551.634 30.688 552.354 27.496 553.794 24.712C555.234 21.928 557.25 19.768 559.842 18.232C562.482 16.696 565.458 15.928 568.77 15.928C571.938 15.928 574.698 16.624 577.05 18.016C579.402 19.408 581.226 21.376 582.522 23.92C583.818 26.464 584.466 29.464 584.466 32.92C584.466 34.984 583.554 36.016 581.73 36.016H560.49C560.778 39.328 561.714 41.776 563.298 43.36C564.882 44.896 567.186 45.664 570.21 45.664C571.746 45.664 573.09 45.472 574.242 45.088C575.442 44.704 576.786 44.176 578.274 43.504C579.714 42.736 580.77 42.352 581.442 42.352ZM568.986 22.264C566.538 22.264 564.57 23.032 563.082 24.568C561.642 26.104 560.778 28.312 560.49 31.192H576.762C576.666 28.264 575.946 26.056 574.602 24.568C573.258 23.032 571.386 22.264 568.986 22.264ZM596.292 52.432C594.996 52.432 593.916 52.072 593.052 51.352C592.236 50.584 591.828 49.504 591.828 48.112V5.128C591.828 3.736 592.236 2.68 593.052 1.96C593.916 1.24 594.996 0.879997 596.292 0.879997C597.588 0.879997 598.668 1.24 599.532 1.96C600.396 2.68 600.828 3.736 600.828 5.128V48.112C600.828 49.504 600.396 50.584 599.532 51.352C598.668 52.072 597.588 52.432 596.292 52.432ZM661.049 44.512C663.929 44.512 665.369 45.736 665.369 48.184C665.369 50.728 663.929 52 661.049 52H636.713C633.785 52 632.321 50.728 632.321 48.184C632.321 45.736 633.785 44.512 636.713 44.512H644.201V11.68L637.289 15.928C636.617 16.312 636.017 16.504 635.489 16.504C634.481 16.504 633.617 16.072 632.897 15.208C632.225 14.344 631.889 13.384 631.889 12.328C631.889 10.936 632.513 9.856 633.761 9.088L644.921 2.176C646.361 1.312 647.729 0.879997 649.025 0.879997C650.369 0.879997 651.449 1.288 652.265 2.104C653.081 2.92 653.489 4.048 653.489 5.488V44.512H661.049ZM703.356 45.376C704.22 46.24 704.652 47.224 704.652 48.328C704.652 49.384 704.244 50.344 703.428 51.208C702.612 52.024 701.652 52.432 700.548 52.432C699.348 52.432 698.316 51.928 697.452 50.92L687.3 39.688L677.148 50.92C676.236 51.88 675.204 52.36 674.052 52.36C672.996 52.36 672.06 51.952 671.244 51.136C670.428 50.32 670.02 49.384 670.02 48.328C670.02 47.224 670.452 46.24 671.316 45.376L681.828 33.928L671.892 23.128C671.028 22.264 670.596 21.28 670.596 20.176C670.596 19.072 671.004 18.136 671.82 17.368C672.636 16.552 673.572 16.144 674.628 16.144C675.78 16.144 676.812 16.624 677.724 17.584L687.3 28.096L696.876 17.584C697.788 16.624 698.82 16.144 699.972 16.144C701.076 16.144 702.012 16.552 702.78 17.368C703.596 18.136 704.004 19.072 704.004 20.176C704.004 21.28 703.572 22.264 702.708 23.128L692.772 33.928L703.356 45.376ZM716.448 41.632C718.08 41.632 719.4 42.232 720.408 43.432C721.416 44.632 721.92 46.384 721.92 48.688C721.92 53.248 720.336 57.184 717.168 60.496C716.544 61.12 715.872 61.432 715.152 61.432C714.432 61.432 713.808 61.192 713.28 60.712C712.752 60.232 712.488 59.656 712.488 58.984C712.488 58.408 712.728 57.856 713.208 57.328C714.648 55.792 715.584 54.064 716.016 52.144C714.624 52 713.472 51.472 712.56 50.56C711.696 49.6 711.264 48.424 711.264 47.032C711.264 45.496 711.744 44.224 712.704 43.216C713.712 42.16 714.96 41.632 716.448 41.632ZM780.926 44.512C783.806 44.512 785.246 45.736 785.246 48.184C785.246 50.728 783.806 52 780.926 52H753.566C752.318 52 751.334 51.64 750.614 50.92C749.894 50.152 749.534 49.216 749.534 48.112C749.534 46.672 750.086 45.376 751.19 44.224L767.606 26.584C769.622 24.376 771.086 22.36 771.998 20.536C772.958 18.664 773.438 16.816 773.438 14.992C773.438 12.736 772.79 11.008 771.494 9.808C770.198 8.608 768.35 8.008 765.95 8.008C763.982 8.008 762.062 8.392 760.19 9.16C758.366 9.88 756.518 10.888 754.646 12.184C754.166 12.52 753.686 12.808 753.206 13.048C752.726 13.24 752.246 13.336 751.766 13.336C750.95 13.336 750.23 12.952 749.606 12.184C749.03 11.416 748.742 10.504 748.742 9.448C748.742 8.728 748.862 8.104 749.102 7.576C749.39 7.048 749.822 6.544 750.398 6.064C752.51 4.384 754.982 3.064 757.814 2.104C760.646 1.096 763.478 0.591997 766.31 0.591997C771.254 0.591997 775.19 1.84 778.118 4.336C781.094 6.832 782.582 10.192 782.582 14.416C782.582 17.344 781.958 20.104 780.71 22.696C779.462 25.24 777.35 28.096 774.374 31.264L761.918 44.512H780.926ZM823.521 45.376C824.385 46.24 824.817 47.224 824.817 48.328C824.817 49.384 824.409 50.344 823.593 51.208C822.777 52.024 821.817 52.432 820.713 52.432C819.513 52.432 818.481 51.928 817.617 50.92L807.465 39.688L797.312 50.92C796.401 51.88 795.369 52.36 794.217 52.36C793.161 52.36 792.225 51.952 791.409 51.136C790.593 50.32 790.185 49.384 790.185 48.328C790.185 47.224 790.617 46.24 791.481 45.376L801.993 33.928L792.057 23.128C791.193 22.264 790.761 21.28 790.761 20.176C790.761 19.072 791.169 18.136 791.985 17.368C792.801 16.552 793.737 16.144 794.793 16.144C795.945 16.144 796.977 16.624 797.889 17.584L807.465 28.096L817.041 17.584C817.953 16.624 818.985 16.144 820.137 16.144C821.241 16.144 822.177 16.552 822.945 17.368C823.761 18.136 824.169 19.072 824.169 20.176C824.169 21.28 823.737 22.264 822.873 23.128L812.937 33.928L823.521 45.376Z" fill="black"/>
</svg>
