<svg width="711" height="62" viewBox="0 0 711 62" fill="none" xmlns="http://www.w3.org/2000/svg">
<path d="M22.1821 52.36C20.7421 52.36 19.5901 51.952 18.7261 51.136C17.9101 50.272 17.5021 49.144 17.5021 47.752V8.872H4.39813C1.51813 8.872 0.078125 7.6 0.078125 5.056C0.078125 2.512 1.51813 1.24 4.39813 1.24H39.8941C42.7741 1.24 44.2141 2.512 44.2141 5.056C44.2141 7.6 42.7741 8.872 39.8941 8.872H26.7901V47.752C26.7901 49.144 26.3581 50.272 25.4941 51.136C24.6781 51.952 23.5741 52.36 22.1821 52.36ZM71.1517 16.072C72.5437 16.072 73.6477 16.456 74.4637 17.224C75.2797 17.992 75.6877 19.024 75.6877 20.32V48.256C75.6877 49.504 75.2557 50.512 74.3917 51.28C73.5757 52.048 72.4957 52.432 71.1517 52.432C69.8557 52.432 68.8237 52.072 68.0557 51.352C67.2877 50.632 66.9037 49.648 66.9037 48.4V46.6C65.7997 48.52 64.3117 50.008 62.4397 51.064C60.5677 52.072 58.4557 52.576 56.1037 52.576C47.4637 52.576 43.1437 47.728 43.1437 38.032V20.32C43.1437 19.024 43.5517 17.992 44.3677 17.224C45.1837 16.456 46.2637 16.072 47.6077 16.072C48.9997 16.072 50.1037 16.456 50.9197 17.224C51.7357 17.992 52.1437 19.024 52.1437 20.32V38.104C52.1437 40.6 52.6477 42.448 53.6557 43.648C54.6637 44.848 56.2477 45.448 58.4077 45.448C60.9037 45.448 62.8957 44.632 64.3837 43C65.9197 41.32 66.6877 39.112 66.6877 36.376V20.32C66.6877 19.024 67.0957 17.992 67.9117 17.224C68.7277 16.456 69.8077 16.072 71.1517 16.072ZM105.503 15.928C109.727 15.928 112.871 17.128 114.935 19.528C116.999 21.928 118.031 25.552 118.031 30.4V48.112C118.031 49.456 117.623 50.512 116.807 51.28C116.039 52.048 114.959 52.432 113.567 52.432C112.175 52.432 111.071 52.048 110.255 51.28C109.439 50.512 109.031 49.456 109.031 48.112V30.904C109.031 28.168 108.503 26.176 107.447 24.928C106.439 23.68 104.831 23.056 102.623 23.056C100.031 23.056 97.943 23.872 96.359 25.504C94.823 27.136 94.055 29.32 94.055 32.056V48.112C94.055 49.456 93.647 50.512 92.831 51.28C92.015 52.048 90.911 52.432 89.519 52.432C88.127 52.432 87.023 52.048 86.207 51.28C85.439 50.512 85.055 49.456 85.055 48.112V20.248C85.055 19 85.463 17.992 86.279 17.224C87.095 16.456 88.199 16.072 89.591 16.072C90.839 16.072 91.847 16.456 92.615 17.224C93.431 17.944 93.839 18.904 93.839 20.104V22.048C95.039 20.08 96.647 18.568 98.663 17.512C100.679 16.456 102.959 15.928 105.503 15.928ZM155.036 42.352C155.852 42.352 156.5 42.664 156.98 43.288C157.508 43.912 157.772 44.752 157.772 45.808C157.772 47.296 156.884 48.544 155.108 49.552C153.476 50.464 151.628 51.208 149.564 51.784C147.5 52.312 145.532 52.576 143.66 52.576C137.996 52.576 133.508 50.944 130.196 47.68C126.884 44.416 125.228 39.952 125.228 34.288C125.228 30.688 125.948 27.496 127.388 24.712C128.828 21.928 130.844 19.768 133.436 18.232C136.076 16.696 139.052 15.928 142.364 15.928C145.532 15.928 148.292 16.624 150.644 18.016C152.996 19.408 154.82 21.376 156.116 23.92C157.412 26.464 158.06 29.464 158.06 32.92C158.06 34.984 157.148 36.016 155.324 36.016H134.084C134.372 39.328 135.308 41.776 136.892 43.36C138.476 44.896 140.78 45.664 143.804 45.664C145.34 45.664 146.684 45.472 147.836 45.088C149.036 44.704 150.38 44.176 151.868 43.504C153.308 42.736 154.364 42.352 155.036 42.352ZM142.58 22.264C140.132 22.264 138.164 23.032 136.676 24.568C135.236 26.104 134.372 28.312 134.084 31.192H150.356C150.26 28.264 149.54 26.056 148.196 24.568C146.852 23.032 144.98 22.264 142.58 22.264ZM178.166 52.576C172.934 52.576 168.71 51.544 165.494 49.48C163.958 48.568 163.19 47.272 163.19 45.592C163.19 44.632 163.454 43.864 163.982 43.288C164.51 42.664 165.158 42.352 165.926 42.352C166.742 42.352 167.87 42.736 169.31 43.504C170.846 44.224 172.238 44.776 173.486 45.16C174.782 45.544 176.414 45.736 178.382 45.736C180.398 45.736 181.958 45.4 183.062 44.728C184.214 44.056 184.79 43.12 184.79 41.92C184.79 41.104 184.55 40.456 184.07 39.976C183.638 39.496 182.822 39.064 181.622 38.68C180.47 38.248 178.694 37.768 176.294 37.24C172.022 36.376 168.95 35.152 167.078 33.568C165.254 31.984 164.342 29.8 164.342 27.016C164.342 24.904 164.966 23.008 166.214 21.328C167.462 19.6 169.166 18.28 171.326 17.368C173.534 16.408 176.03 15.928 178.814 15.928C180.83 15.928 182.774 16.192 184.646 16.72C186.518 17.2 188.198 17.92 189.686 18.88C191.222 19.84 191.99 21.112 191.99 22.696C191.99 23.656 191.726 24.472 191.198 25.144C190.67 25.768 190.022 26.08 189.254 26.08C188.726 26.08 188.198 25.984 187.67 25.792C187.19 25.552 186.566 25.216 185.798 24.784C184.406 24.064 183.206 23.536 182.198 23.2C181.19 22.816 179.942 22.624 178.454 22.624C176.678 22.624 175.262 22.984 174.206 23.704C173.198 24.424 172.694 25.408 172.694 26.656C172.694 27.856 173.222 28.768 174.278 29.392C175.334 30.016 177.374 30.64 180.398 31.264C183.614 31.936 186.134 32.704 187.958 33.568C189.782 34.432 191.078 35.512 191.846 36.808C192.662 38.104 193.07 39.76 193.07 41.776C193.07 45.04 191.702 47.656 188.966 49.624C186.278 51.592 182.678 52.576 178.166 52.576ZM235.538 52.576C232.034 52.576 228.938 51.832 226.25 50.344C223.61 48.856 221.57 46.744 220.13 44.008C218.69 41.272 217.97 38.08 217.97 34.432C217.97 30.784 218.714 27.568 220.202 24.784C221.738 21.952 223.874 19.768 226.61 18.232C229.346 16.696 232.49 15.928 236.042 15.928C237.914 15.928 239.786 16.192 241.658 16.72C243.578 17.248 245.258 17.968 246.698 18.88C248.234 19.888 249.002 21.16 249.002 22.696C249.002 23.752 248.738 24.616 248.21 25.288C247.73 25.912 247.082 26.224 246.266 26.224C245.738 26.224 245.186 26.104 244.61 25.864C244.034 25.624 243.458 25.336 242.882 25C241.826 24.376 240.818 23.896 239.858 23.56C238.898 23.176 237.794 22.984 236.546 22.984C233.57 22.984 231.266 23.968 229.634 25.936C228.05 27.856 227.258 30.64 227.258 34.288C227.258 37.888 228.05 40.672 229.634 42.64C231.266 44.56 233.57 45.52 236.546 45.52C237.746 45.52 238.802 45.352 239.714 45.016C240.674 44.632 241.73 44.128 242.882 43.504C243.602 43.072 244.226 42.76 244.754 42.568C245.282 42.328 245.81 42.208 246.338 42.208C247.106 42.208 247.754 42.544 248.282 43.216C248.81 43.888 249.074 44.728 249.074 45.736C249.074 46.552 248.882 47.272 248.498 47.896C248.162 48.472 247.586 49 246.77 49.48C245.282 50.44 243.554 51.208 241.586 51.784C239.618 52.312 237.602 52.576 235.538 52.576ZM270.335 15.928C275.231 15.928 278.855 17.152 281.207 19.6C283.607 22 284.807 25.672 284.807 30.616V48.184C284.807 49.48 284.423 50.512 283.655 51.28C282.887 52 281.831 52.36 280.487 52.36C279.239 52.36 278.207 51.976 277.391 51.208C276.623 50.44 276.239 49.432 276.239 48.184V46.6C275.423 48.472 274.127 49.936 272.351 50.992C270.623 52.048 268.607 52.576 266.303 52.576C263.951 52.576 261.815 52.096 259.895 51.136C257.975 50.176 256.463 48.856 255.359 47.176C254.255 45.496 253.703 43.624 253.703 41.56C253.703 38.968 254.351 36.928 255.647 35.44C256.991 33.952 259.151 32.872 262.127 32.2C265.103 31.528 269.207 31.192 274.439 31.192H276.239V29.536C276.239 27.184 275.735 25.48 274.727 24.424C273.719 23.32 272.087 22.768 269.831 22.768C268.439 22.768 267.023 22.984 265.583 23.416C264.143 23.8 262.439 24.376 260.471 25.144C259.223 25.768 258.311 26.08 257.735 26.08C256.871 26.08 256.151 25.768 255.575 25.144C255.047 24.52 254.783 23.704 254.783 22.696C254.783 21.88 254.975 21.184 255.359 20.608C255.791 19.984 256.487 19.408 257.447 18.88C259.127 17.968 261.119 17.248 263.423 16.72C265.775 16.192 268.079 15.928 270.335 15.928ZM268.103 46.096C270.503 46.096 272.447 45.304 273.935 43.72C275.471 42.088 276.239 40 276.239 37.456V35.944H274.943C271.727 35.944 269.231 36.088 267.455 36.376C265.679 36.664 264.407 37.168 263.639 37.888C262.871 38.608 262.487 39.592 262.487 40.84C262.487 42.376 263.015 43.648 264.071 44.656C265.175 45.616 266.519 46.096 268.103 46.096ZM313.609 16.072C314.857 15.976 315.841 16.24 316.561 16.864C317.281 17.488 317.641 18.424 317.641 19.672C317.641 20.968 317.329 21.928 316.705 22.552C316.081 23.176 314.953 23.584 313.321 23.776L311.161 23.992C308.329 24.28 306.241 25.24 304.897 26.872C303.601 28.504 302.953 30.544 302.953 32.992V48.112C302.953 49.504 302.521 50.584 301.657 51.352C300.793 52.072 299.713 52.432 298.417 52.432C297.121 52.432 296.041 52.072 295.177 51.352C294.361 50.584 293.953 49.504 293.953 48.112V20.248C293.953 18.904 294.361 17.872 295.177 17.152C296.041 16.432 297.097 16.072 298.345 16.072C299.593 16.072 300.601 16.432 301.369 17.152C302.137 17.824 302.521 18.808 302.521 20.104V22.984C303.433 20.872 304.777 19.24 306.553 18.088C308.377 16.936 310.393 16.288 312.601 16.144L313.609 16.072ZM336.869 52.576C333.269 52.576 330.101 51.832 327.365 50.344C324.677 48.856 322.589 46.72 321.101 43.936C319.613 41.152 318.869 37.912 318.869 34.216C318.869 30.52 319.613 27.304 321.101 24.568C322.589 21.784 324.677 19.648 327.365 18.16C330.101 16.672 333.269 15.928 336.869 15.928C340.469 15.928 343.613 16.672 346.301 18.16C349.037 19.648 351.125 21.784 352.565 24.568C354.053 27.304 354.797 30.52 354.797 34.216C354.797 37.912 354.053 41.152 352.565 43.936C351.125 46.72 349.037 48.856 346.301 50.344C343.613 51.832 340.469 52.576 336.869 52.576ZM336.797 45.592C339.725 45.592 341.957 44.632 343.493 42.712C345.029 40.792 345.797 37.96 345.797 34.216C345.797 30.52 345.029 27.712 343.493 25.792C341.957 23.824 339.749 22.84 336.869 22.84C333.989 22.84 331.757 23.824 330.173 25.792C328.637 27.712 327.869 30.52 327.869 34.216C327.869 37.96 328.637 40.792 330.173 42.712C331.709 44.632 333.917 45.592 336.797 45.592ZM390.019 16.072C391.411 16.072 392.515 16.456 393.331 17.224C394.147 17.992 394.555 19.024 394.555 20.32V48.256C394.555 49.504 394.123 50.512 393.259 51.28C392.443 52.048 391.363 52.432 390.019 52.432C388.723 52.432 387.691 52.072 386.923 51.352C386.155 50.632 385.771 49.648 385.771 48.4V46.6C384.667 48.52 383.179 50.008 381.307 51.064C379.435 52.072 377.323 52.576 374.971 52.576C366.331 52.576 362.011 47.728 362.011 38.032V20.32C362.011 19.024 362.419 17.992 363.235 17.224C364.051 16.456 365.131 16.072 366.475 16.072C367.867 16.072 368.971 16.456 369.787 17.224C370.603 17.992 371.011 19.024 371.011 20.32V38.104C371.011 40.6 371.515 42.448 372.523 43.648C373.531 44.848 375.115 45.448 377.275 45.448C379.771 45.448 381.763 44.632 383.251 43C384.787 41.32 385.555 39.112 385.555 36.376V20.32C385.555 19.024 385.963 17.992 386.779 17.224C387.595 16.456 388.675 16.072 390.019 16.072ZM416.666 52.576C411.434 52.576 407.21 51.544 403.994 49.48C402.458 48.568 401.69 47.272 401.69 45.592C401.69 44.632 401.954 43.864 402.482 43.288C403.01 42.664 403.658 42.352 404.426 42.352C405.242 42.352 406.37 42.736 407.81 43.504C409.346 44.224 410.738 44.776 411.986 45.16C413.282 45.544 414.914 45.736 416.882 45.736C418.898 45.736 420.458 45.4 421.562 44.728C422.714 44.056 423.29 43.12 423.29 41.92C423.29 41.104 423.05 40.456 422.57 39.976C422.138 39.496 421.322 39.064 420.122 38.68C418.97 38.248 417.194 37.768 414.794 37.24C410.522 36.376 407.45 35.152 405.578 33.568C403.754 31.984 402.842 29.8 402.842 27.016C402.842 24.904 403.466 23.008 404.714 21.328C405.962 19.6 407.666 18.28 409.826 17.368C412.034 16.408 414.53 15.928 417.314 15.928C419.33 15.928 421.274 16.192 423.146 16.72C425.018 17.2 426.698 17.92 428.186 18.88C429.722 19.84 430.49 21.112 430.49 22.696C430.49 23.656 430.226 24.472 429.698 25.144C429.17 25.768 428.522 26.08 427.754 26.08C427.226 26.08 426.698 25.984 426.17 25.792C425.69 25.552 425.066 25.216 424.298 24.784C422.906 24.064 421.706 23.536 420.698 23.2C419.69 22.816 418.442 22.624 416.954 22.624C415.178 22.624 413.762 22.984 412.706 23.704C411.698 24.424 411.194 25.408 411.194 26.656C411.194 27.856 411.722 28.768 412.778 29.392C413.834 30.016 415.874 30.64 418.898 31.264C422.114 31.936 424.634 32.704 426.458 33.568C428.282 34.432 429.578 35.512 430.346 36.808C431.162 38.104 431.57 39.76 431.57 41.776C431.57 45.04 430.202 47.656 427.466 49.624C424.778 51.592 421.178 52.576 416.666 52.576ZM466.732 42.352C467.548 42.352 468.196 42.664 468.676 43.288C469.204 43.912 469.468 44.752 469.468 45.808C469.468 47.296 468.58 48.544 466.804 49.552C465.172 50.464 463.324 51.208 461.26 51.784C459.196 52.312 457.228 52.576 455.355 52.576C449.692 52.576 445.204 50.944 441.892 47.68C438.58 44.416 436.924 39.952 436.924 34.288C436.924 30.688 437.644 27.496 439.084 24.712C440.524 21.928 442.54 19.768 445.132 18.232C447.772 16.696 450.748 15.928 454.06 15.928C457.228 15.928 459.988 16.624 462.34 18.016C464.692 19.408 466.516 21.376 467.812 23.92C469.108 26.464 469.756 29.464 469.756 32.92C469.756 34.984 468.844 36.016 467.02 36.016H445.78C446.068 39.328 447.004 41.776 448.588 43.36C450.172 44.896 452.476 45.664 455.5 45.664C457.036 45.664 458.38 45.472 459.532 45.088C460.732 44.704 462.076 44.176 463.564 43.504C465.004 42.736 466.06 42.352 466.732 42.352ZM454.276 22.264C451.828 22.264 449.86 23.032 448.372 24.568C446.932 26.104 446.068 28.312 445.78 31.192H462.052C461.956 28.264 461.236 26.056 459.892 24.568C458.548 23.032 456.676 22.264 454.276 22.264ZM481.582 52.432C480.286 52.432 479.206 52.072 478.342 51.352C477.526 50.584 477.118 49.504 477.118 48.112V5.128C477.118 3.736 477.526 2.68 478.342 1.96C479.206 1.24 480.286 0.879997 481.582 0.879997C482.878 0.879997 483.958 1.24 484.822 1.96C485.686 2.68 486.118 3.736 486.118 5.128V48.112C486.118 49.504 485.686 50.584 484.822 51.352C483.958 52.072 482.878 52.432 481.582 52.432ZM546.338 44.512C549.218 44.512 550.658 45.736 550.658 48.184C550.658 50.728 549.218 52 546.338 52H522.002C519.074 52 517.61 50.728 517.61 48.184C517.61 45.736 519.074 44.512 522.002 44.512H529.49V11.68L522.578 15.928C521.906 16.312 521.306 16.504 520.778 16.504C519.77 16.504 518.906 16.072 518.186 15.208C517.514 14.344 517.178 13.384 517.178 12.328C517.178 10.936 517.802 9.856 519.05 9.088L530.21 2.176C531.65 1.312 533.018 0.879997 534.314 0.879997C535.658 0.879997 536.738 1.288 537.554 2.104C538.37 2.92 538.778 4.048 538.778 5.488V44.512H546.338ZM588.646 45.376C589.51 46.24 589.942 47.224 589.942 48.328C589.942 49.384 589.534 50.344 588.718 51.208C587.902 52.024 586.942 52.432 585.838 52.432C584.638 52.432 583.606 51.928 582.742 50.92L572.59 39.688L562.438 50.92C561.526 51.88 560.494 52.36 559.342 52.36C558.286 52.36 557.35 51.952 556.534 51.136C555.718 50.32 555.31 49.384 555.31 48.328C555.31 47.224 555.742 46.24 556.606 45.376L567.118 33.928L557.182 23.128C556.318 22.264 555.886 21.28 555.886 20.176C555.886 19.072 556.294 18.136 557.11 17.368C557.926 16.552 558.862 16.144 559.918 16.144C561.07 16.144 562.102 16.624 563.014 17.584L572.59 28.096L582.166 17.584C583.078 16.624 584.11 16.144 585.262 16.144C586.366 16.144 587.302 16.552 588.07 17.368C588.886 18.136 589.294 19.072 589.294 20.176C589.294 21.28 588.862 22.264 587.998 23.128L578.062 33.928L588.646 45.376ZM601.737 41.632C603.369 41.632 604.689 42.232 605.697 43.432C606.705 44.632 607.209 46.384 607.209 48.688C607.209 53.248 605.625 57.184 602.457 60.496C601.833 61.12 601.161 61.432 600.441 61.432C599.721 61.432 599.097 61.192 598.569 60.712C598.041 60.232 597.777 59.656 597.777 58.984C597.777 58.408 598.017 57.856 598.497 57.328C599.937 55.792 600.873 54.064 601.305 52.144C599.913 52 598.761 51.472 597.849 50.56C596.985 49.6 596.553 48.424 596.553 47.032C596.553 45.496 597.033 44.224 597.993 43.216C599.001 42.16 600.249 41.632 601.737 41.632ZM666.215 44.512C669.095 44.512 670.535 45.736 670.535 48.184C670.535 50.728 669.095 52 666.215 52H638.855C637.607 52 636.623 51.64 635.903 50.92C635.183 50.152 634.823 49.216 634.823 48.112C634.823 46.672 635.375 45.376 636.479 44.224L652.895 26.584C654.911 24.376 656.375 22.36 657.287 20.536C658.247 18.664 658.727 16.816 658.727 14.992C658.727 12.736 658.079 11.008 656.783 9.808C655.487 8.608 653.639 8.008 651.239 8.008C649.271 8.008 647.351 8.392 645.479 9.16C643.655 9.88 641.807 10.888 639.935 12.184C639.455 12.52 638.975 12.808 638.495 13.048C638.015 13.24 637.535 13.336 637.055 13.336C636.239 13.336 635.519 12.952 634.895 12.184C634.319 11.416 634.031 10.504 634.031 9.448C634.031 8.728 634.151 8.104 634.391 7.576C634.679 7.048 635.111 6.544 635.687 6.064C637.799 4.384 640.271 3.064 643.103 2.104C645.935 1.096 648.767 0.591997 651.599 0.591997C656.543 0.591997 660.479 1.84 663.407 4.336C666.383 6.832 667.871 10.192 667.871 14.416C667.871 17.344 667.247 20.104 665.999 22.696C664.751 25.24 662.639 28.096 659.663 31.264L647.207 44.512H666.215ZM708.81 45.376C709.674 46.24 710.106 47.224 710.106 48.328C710.106 49.384 709.698 50.344 708.882 51.208C708.066 52.024 707.106 52.432 706.002 52.432C704.802 52.432 703.77 51.928 702.906 50.92L692.754 39.688L682.602 50.92C681.69 51.88 680.658 52.36 679.506 52.36C678.45 52.36 677.514 51.952 676.698 51.136C675.882 50.32 675.474 49.384 675.474 48.328C675.474 47.224 675.906 46.24 676.77 45.376L687.282 33.928L677.346 23.128C676.482 22.264 676.05 21.28 676.05 20.176C676.05 19.072 676.458 18.136 677.274 17.368C678.09 16.552 679.026 16.144 680.082 16.144C681.234 16.144 682.266 16.624 683.178 17.584L692.754 28.096L702.33 17.584C703.242 16.624 704.274 16.144 705.426 16.144C706.53 16.144 707.466 16.552 708.234 17.368C709.05 18.136 709.458 19.072 709.458 20.176C709.458 21.28 709.026 22.264 708.162 23.128L698.226 33.928L708.81 45.376Z" fill="black"/>
</svg>
