<svg width="92" height="92" viewBox="0 0 92 92" fill="none" xmlns="http://www.w3.org/2000/svg">
<g filter="url(#filter0_d)">
<circle cx="46" cy="43" r="38" fill="#F53E98"/>
<circle cx="46" cy="43" r="36.5" stroke="#FF92C8" stroke-width="3"/>
</g>
<mask id="mask0" mask-type="alpha" maskUnits="userSpaceOnUse" x="25" y="22" width="44" height="42">
<ellipse cx="47.119" cy="43" rx="21.2353" ry="20.8627" fill="#C4C4C4"/>
</mask>
<g mask="url(#mask0)">
<path d="M7.25484 43.0005C7.25484 35.3374 9.5272 27.8465 13.7846 21.4749C18.0419 15.1033 24.0931 10.1372 31.1728 7.20468C38.2526 4.27216 46.0429 3.50488 53.5587 4.99986C61.0745 6.49485 67.9783 10.185 73.3969 15.6036C78.8155 21.0222 82.5056 27.9259 84.0006 35.4417C85.4955 42.9575 84.7283 50.7478 81.7957 57.8276C78.8632 64.9073 73.8972 70.9585 67.5256 75.2158C61.154 79.4732 53.663 81.7456 45.9999 81.7456C35.7276 81.7342 25.8792 77.6485 18.6156 70.3848C11.352 63.1212 7.26624 53.2728 7.25484 43.0005H7.25484ZM13.213 43.0005C13.213 49.4851 15.1359 55.8241 18.7386 61.2159C22.3413 66.6077 27.4619 70.8101 33.4529 73.2917C39.4439 75.7732 46.0363 76.4225 52.3964 75.1574C58.7564 73.8923 64.5985 70.7697 69.1838 66.1844C73.7692 61.599 76.8918 55.7569 78.1569 49.3969C79.422 43.0368 78.7727 36.4445 76.2911 30.4535C73.8096 24.4624 69.6072 19.3418 64.2154 15.7391C58.8236 12.1364 52.4846 10.2135 45.9999 10.2135C37.3071 10.2226 28.9729 13.6799 22.8261 19.8267C16.6794 25.9734 13.2221 34.3076 13.213 43.0005ZM36.064 50.8657V35.1352C36.0639 34.3891 36.2577 33.6558 36.6265 33.0072C36.9952 32.3586 37.5262 31.8169 38.1673 31.4354C38.8085 31.0538 39.5378 30.8454 40.2838 30.8306C41.0297 30.8159 41.7667 30.9952 42.4225 31.3511L56.9131 39.2164C57.5955 39.5856 58.1654 40.1324 58.5626 40.7989C58.9597 41.4653 59.1694 42.2268 59.1694 43.0026C59.1694 43.7785 58.9597 44.5399 58.5626 45.2064C58.1654 45.8729 57.5955 46.4197 56.9131 46.7889L42.4225 54.6498C41.7667 55.0057 41.0297 55.1851 40.2838 55.1703C39.5378 55.1555 38.8085 54.9472 38.1673 54.5656C37.5262 54.184 36.9952 53.6424 36.6265 52.9938C36.2577 52.3451 36.0639 51.6118 36.064 50.8657Z" fill="white"/>
</g>
<defs>
<filter id="filter0_d" x="0" y="0" width="92" height="92" filterUnits="userSpaceOnUse" color-interpolation-filters="sRGB">
<feFlood flood-opacity="0" result="BackgroundImageFix"/>
<feColorMatrix in="SourceAlpha" type="matrix" values="0 0 0 0 0 0 0 0 0 0 0 0 0 0 0 0 0 0 127 0"/>
<feOffset dy="3"/>
<feGaussianBlur stdDeviation="4"/>
<feColorMatrix type="matrix" values="0 0 0 0 0 0 0 0 0 0 0 0 0 0 0 0 0 0 0.12 0"/>
<feBlend mode="normal" in2="BackgroundImageFix" result="effect1_dropShadow"/>
<feBlend mode="normal" in="SourceGraphic" in2="effect1_dropShadow" result="shape"/>
</filter>
</defs>
</svg>
